<svg xmlns="http://www.w3.org/2000/svg" width="24" height="24" viewBox="0 0 24 24" fill="currentColor">
<path d="M17.9821 2H5.92857C3.73259 2 2 3.73259 2 5.92857V17.9821C2 20.1781 3.73259 22 5.92857 22H17.9821C20.1781 22 22 20.1781 22 17.9821V5.92857C22 3.73259 20.1781 2 17.9821 2ZM15.5714 18.25H13.25C11.3522 18.25 10.0357 17.1929 10.0357 14.8571V11.2857H8.42857V9.14286C10.3263 8.65179 11.0156 6.98571 11.1071 5.57143H13.0714V8.78571H15.3929V11.2857H13.0714L13.054 14.4335C13.054 15.4098 13.5451 15.7473 14.3317 15.7473L15.5714 15.75V18.25Z"/>
</svg>