<svg xmlns="http://www.w3.org/2000/svg" width="24" height="24" viewBox="0 0 24 24" fill="currentColor">
<path d="M22.9893 6.92111C22.8915 9.04843 21.3956 11.9614 18.5026 15.6586C15.5114 19.5205 12.9808 21.4514 10.9107 21.4513C9.62864 21.4513 8.54299 20.2756 7.6568 17.9235C7.06452 15.7674 6.47302 13.6114 5.88099 11.4554C5.22245 9.1045 4.51648 7.92752 3.76169 7.92752C3.59712 7.92752 3.02116 8.27156 2.03512 8.95684L1 7.63221C2.07755 6.69237 3.14779 5.74433 4.21062 4.78817C5.65867 3.54508 6.74578 2.89141 7.47023 2.82529C9.18245 2.66193 10.2363 3.8246 10.6319 6.31329C11.0593 8.99833 11.355 10.6685 11.5213 11.3221C12.0148 13.5497 12.5577 14.6621 13.1511 14.6621C13.6116 14.6621 14.3033 13.9398 15.2255 12.4949C16.1469 11.0497 16.6404 9.95012 16.7071 9.19481C16.8381 7.94763 16.3444 7.3225 15.2255 7.3225C14.6989 7.3225 14.1558 7.44289 13.5973 7.68086C14.6784 4.16288 16.7442 2.45433 19.7934 2.5518C22.0539 2.61766 23.1195 4.0741 22.9893 6.92111Z"/>
</svg>