<svg xmlns="http://www.w3.org/2000/svg" width="24" height="24" viewBox="0 0 24 24" fill="currentColor">
<path d="M9.33811 2C9.07547 2.00007 8.81541 2.05186 8.57278 2.15243C8.33016 2.253 8.10972 2.40038 7.92405 2.58614C7.54907 2.96131 7.33848 3.47007 7.33861 4.0005C7.33868 4.26314 7.39048 4.5232 7.49105 4.76583C7.59162 5.00845 7.73899 5.2289 7.92475 5.41457C8.29992 5.78955 8.80868 6.00013 9.33911 6H11.3351V4C11.3351 3.47009 11.1248 2.96183 10.7504 2.58685C10.376 2.21186 9.86803 2.00079 9.33811 2ZM9.33811 7.333H4.01611C3.48568 7.333 2.97697 7.54371 2.6019 7.91879C2.22683 8.29386 2.01611 8.80257 2.01611 9.333C2.01611 9.86343 2.22683 10.3721 2.6019 10.7472C2.97697 11.1223 3.48568 11.333 4.01611 11.333H9.33811C9.86855 11.333 10.3773 11.1223 10.7523 10.7472C11.1274 10.3721 11.3381 9.86343 11.3381 9.333C11.3381 8.80257 11.1274 8.29386 10.7523 7.91879C10.3773 7.54371 9.86855 7.333 9.33811 7.333Z"/>
<path opacity="0.25" d="M21.98 9.33291C21.98 8.8034 21.7697 8.29558 21.3953 7.92117C21.0209 7.54675 20.513 7.33641 19.9835 7.33641C19.454 7.33641 18.9462 7.54675 18.5718 7.92117C18.1974 8.29558 17.987 8.8034 17.987 9.33291V11.3329H19.984C20.5138 11.3318 21.0215 11.1207 21.3957 10.7457C21.7699 10.3707 21.98 9.86265 21.98 9.33291ZM16.657 9.33291V3.99991C16.657 3.47053 16.4467 2.96284 16.0724 2.58852C15.6981 2.2142 15.1904 2.00391 14.661 2.00391C14.1317 2.00391 13.624 2.2142 13.2497 2.58852C12.8753 2.96284 12.665 3.47053 12.665 3.99991V9.33291C12.665 9.86228 12.8753 10.37 13.2497 10.7443C13.624 11.1186 14.1317 11.3289 14.661 11.3289C15.1904 11.3289 15.6981 11.1186 16.0724 10.7443C16.4467 10.37 16.657 9.86228 16.657 9.33291Z"/>
<path opacity="0.7" d="M14.6611 22C15.1916 22 15.7003 21.7893 16.0753 21.4142C16.4504 21.0392 16.6611 20.5304 16.6611 20C16.6611 19.4696 16.4504 18.9609 16.0753 18.5858C15.7003 18.2107 15.1916 18 14.6611 18H12.6651V20C12.6651 20.5298 12.8753 21.0379 13.2495 21.4128C13.6237 21.7878 14.1314 21.999 14.6611 22ZM14.6611 16.666H19.9841C20.5146 16.666 21.0233 16.4553 21.3983 16.0802C21.7734 15.7052 21.9841 15.1964 21.9841 14.666C21.9841 14.1356 21.7734 13.6269 21.3983 13.2518C21.0233 12.8767 20.5146 12.666 19.9841 12.666H14.6621C14.1317 12.6659 13.6229 12.8765 13.2478 13.2514C13.062 13.4371 12.9146 13.6576 12.8141 13.9002C12.7135 14.1428 12.6617 14.4029 12.6616 14.6655C12.6616 14.9282 12.7132 15.1882 12.8137 15.4309C12.9141 15.6736 13.0614 15.8941 13.2471 16.0799C13.622 16.455 14.1307 16.6659 14.6611 16.666Z"/>
<path opacity="0.5" d="M2.02002 14.666C2.02002 14.9282 2.07166 15.1878 2.17199 15.43C2.27233 15.6723 2.41939 15.8924 2.60478 16.0778C2.79017 16.2631 3.01027 16.4102 3.25249 16.5105C3.49472 16.6109 3.75434 16.6625 4.01652 16.6625C4.2787 16.6625 4.53832 16.6109 4.78055 16.5105C5.02277 16.4102 5.24287 16.2631 5.42826 16.0778C5.61365 15.8924 5.76071 15.6723 5.86104 15.43C5.96138 15.1878 6.01302 14.9282 6.01302 14.666V12.666H4.01602C3.48628 12.6671 2.9786 12.8783 2.60439 13.2532C2.23018 13.6282 2.02002 14.1363 2.02002 14.666ZM7.34302 14.666V20C7.34302 20.2621 7.39465 20.5217 7.49496 20.7639C7.59526 21.006 7.74229 21.2261 7.92763 21.4114C8.11298 21.5967 8.33302 21.7438 8.57518 21.8441C8.81735 21.9444 9.0769 21.996 9.33902 21.996C9.60114 21.996 9.86069 21.9444 10.1029 21.8441C10.345 21.7438 10.5651 21.5967 10.7504 21.4114C10.9358 21.2261 11.0828 21.006 11.1831 20.7639C11.2834 20.5217 11.335 20.2621 11.335 20V14.668C11.3353 14.1386 11.1252 13.6308 10.7511 13.2563C10.377 12.8818 9.86939 12.6713 9.34002 12.671C8.81065 12.6707 8.30285 12.8808 7.92834 13.2549C7.55383 13.6291 7.34328 14.1366 7.34302 14.666Z"/>
</svg>