<svg xmlns="http://www.w3.org/2000/svg" width="24" height="24" viewBox="0 0 24 24" fill="currentColor">
<path fill-rule="evenodd" clip-rule="evenodd" d="M3.02736 12.5025C3.12553 13.0545 3.37381 13.5688 3.74491 13.9889C4.11601 14.4089 4.59559 14.7185 5.131 14.8837C5.4046 14.9669 5.53489 14.9819 5.9939 14.9819C6.45291 14.9819 6.5832 14.9669 6.8568 14.8837C7.63853 14.6449 8.30901 14.0782 8.68684 13.334L8.85521 13.003H10.9999L11.014 14.7783C11.028 16.5366 11.029 16.5567 11.1282 16.8756C11.2767 17.3507 11.5381 17.7827 11.89 18.1346C12.2419 18.4864 12.6738 18.7476 13.1487 18.8957C13.4333 18.9809 13.5686 18.995 14.3173 19.011L15.1641 19.0301L15.3295 19.3561C15.516 19.7226 15.7737 20.0481 16.0876 20.3135C16.4016 20.5789 16.7653 20.7789 17.1575 20.9017C17.4311 20.985 17.5614 21 18.0204 21C18.4794 21 18.6097 20.985 18.8833 20.9017C19.3582 20.754 19.7901 20.4929 20.1417 20.141C20.4934 19.7891 20.7542 19.3569 20.9018 18.8816C20.985 18.6078 21 18.4774 21 18.0181C21 17.5587 20.985 17.4283 20.9018 17.1545C20.7542 16.6792 20.4934 16.247 20.1417 15.8951C19.7901 15.5432 19.3582 15.2821 18.8833 15.1344C18.6097 15.0512 18.4794 15.0361 18.0204 15.0361C17.5614 15.0361 17.4311 15.0512 17.1575 15.1344C16.7639 15.2574 16.399 15.4582 16.0843 15.7249C15.7696 15.9916 15.5116 16.3188 15.3255 16.6871L15.1561 17.0211L14.4335 17.008C13.727 16.995 13.7069 16.993 13.5215 16.8837C13.308 16.7583 13.1457 16.5647 13.0665 16.343C12.9873 16.1204 12.9873 7.87964 13.0665 7.65697C13.1457 7.43531 13.308 7.24173 13.5215 7.11635C13.7069 7.00702 13.727 7.00501 14.4335 6.99198L15.1561 6.97894L15.3255 7.31294C15.5116 7.68121 15.7696 8.00838 16.0843 8.27508C16.399 8.54177 16.7639 8.74257 17.1575 8.8656C17.4311 8.94885 17.5614 8.96389 18.0204 8.96389C18.4794 8.96389 18.6097 8.94885 18.8833 8.8656C19.3582 8.7179 19.7901 8.45684 20.1417 8.10492C20.4934 7.75301 20.7542 7.3208 20.9018 6.84554C20.985 6.57171 21 6.44132 21 5.98195C21 5.52257 20.985 5.39218 20.9018 5.11835C20.7542 4.64309 20.4934 4.21088 20.1417 3.85897C19.7901 3.50705 19.3582 3.24599 18.8833 3.09829C18.6097 3.01504 18.4794 3 18.0204 3C17.5614 3 17.4311 3.01504 17.1575 3.09829C16.7653 3.22108 16.4016 3.42105 16.0876 3.68648C15.7737 3.9519 15.516 4.27743 15.3295 4.64393L15.1641 4.96991L14.3173 4.98897C13.5686 5.00502 13.4333 5.01906 13.1487 5.10431C12.6738 5.25242 12.2419 5.51359 11.89 5.86543C11.5381 6.21726 11.2767 6.64925 11.1282 7.12437C11.029 7.44333 11.028 7.46339 11.014 9.22166L10.9999 10.997H8.85521L8.68684 10.666C8.50061 10.2985 8.24274 9.97207 7.92844 9.70592C7.61413 9.43978 7.24976 9.23931 6.8568 9.11635C6.5832 9.0331 6.45291 9.01805 5.9939 9.01805C5.53489 9.01805 5.4046 9.0331 5.131 9.11635C4.17288 9.40823 3.39316 10.1906 3.11655 11.1364C3.01032 11.4985 2.96722 12.1685 3.02736 12.5025ZM5.13901 11.4865C5.52687 10.8546 6.44089 10.8425 6.83476 11.4634C6.90653 11.5767 6.95481 11.7033 6.97673 11.8357C6.99864 11.968 6.99375 12.1034 6.96234 12.2339C6.93093 12.3643 6.87363 12.4871 6.79387 12.5949C6.7141 12.7028 6.61349 12.7934 6.49801 12.8616C6.32363 12.9689 6.2655 12.9829 5.99691 12.9829C5.73733 12.9829 5.66618 12.9669 5.50382 12.8716C5.33678 12.7814 5.20033 12.6434 5.11181 12.4754C5.0233 12.3073 4.98672 12.1167 5.00672 11.9278C5.00878 11.7712 5.05461 11.6183 5.13901 11.4865ZM17.1655 17.5045C17.5534 16.8726 18.4674 16.8606 18.8613 17.4814C18.9331 17.5948 18.9813 17.7214 19.0033 17.8537C19.0252 17.9861 19.0203 18.1215 18.9889 18.2519C18.9575 18.3824 18.9002 18.5051 18.8204 18.613C18.7406 18.7208 18.64 18.8115 18.5245 18.8796C18.3502 18.987 18.292 19.001 18.0234 19.001C17.7639 19.001 17.6927 18.985 17.5303 18.8897C17.3633 18.7994 17.2269 18.6615 17.1383 18.4934C17.0498 18.3254 17.0132 18.1348 17.0333 17.9458C17.0353 17.7893 17.0811 17.6364 17.1655 17.5045ZM17.1655 5.46841C17.5534 4.83651 18.4674 4.82447 18.8613 5.44534C18.9331 5.55865 18.9813 5.68525 19.0033 5.81761C19.0252 5.94997 19.0203 6.08539 18.9889 6.21582C18.9575 6.34625 18.9002 6.46904 18.8204 6.57687C18.7406 6.6847 18.64 6.77538 18.5245 6.84353C18.3502 6.95085 18.292 6.96489 18.0234 6.96489C17.7639 6.96489 17.6927 6.94885 17.5303 6.85356C17.3633 6.76331 17.2269 6.62538 17.1383 6.45732C17.0498 6.28926 17.0132 6.09865 17.0332 5.90973C17.0353 5.75314 17.0811 5.60026 17.1655 5.46841Z" style="fill:#455A64;fill:color(display-p3 0.2706 0.3529 0.3922);fill-opacity:1;"/>
</svg>