<svg xmlns="http://www.w3.org/2000/svg" width="24" height="24" viewBox="0 0 24 24" fill="currentColor">
<path d="M19.0833 15.3334H16.5833C16.4416 15.3334 16.3025 15.3434 16.1666 15.3634V12.4167C16.1666 10.8083 14.8583 9.49996 13.2499 9.49996H10.7499C9.14155 9.49996 7.8332 10.8083 7.8332 12.4167V12.8633C7.69737 12.8442 7.5582 12.8333 7.41653 12.8333H4.9165C3.30815 12.8333 1.9998 14.1417 1.9998 15.75V19.0834C1.9998 20.6918 3.30815 22.0001 4.9165 22.0001H19.0833C20.6917 22.0001 22 20.6918 22 19.0834V18.2501C22 16.6417 20.6917 15.3334 19.0833 15.3334ZM10.3332 12.4167C10.3332 12.1875 10.5199 12 10.7499 12H13.2499C13.4799 12 13.6666 12.1875 13.6666 12.4167V19.5001H10.3332V12.4167ZM4.49983 19.0834V15.75C4.49983 15.5209 4.6865 15.3334 4.9165 15.3334H7.41653C7.64653 15.3334 7.8332 15.5209 7.8332 15.75V19.5001H4.9165C4.6865 19.5001 4.49983 19.3126 4.49983 19.0834ZM19.5 19.0834C19.5 19.3126 19.3133 19.5001 19.0833 19.5001H16.1666V18.2501C16.1666 18.0209 16.3533 17.8334 16.5833 17.8334H19.0833C19.3133 17.8334 19.5 18.0209 19.5 18.2501V19.0834ZM20.3334 11.5833C20.3334 11.3541 20.1467 11.1666 19.9167 11.1666H19.5C19.04 11.1666 18.6667 10.7941 18.6667 10.3333C18.6667 9.87246 19.04 9.49996 19.5 9.49996C19.73 9.49996 19.9167 9.31246 19.9167 9.08329C19.9167 8.85412 19.73 8.66662 19.5 8.66662H17.8333C17.3733 8.66662 17 8.29411 17 7.83327C17 7.37243 17.3733 6.99993 17.8333 6.99993H19.5C20.6484 6.99993 21.5834 7.93411 21.5834 9.08329C21.5834 9.43662 21.4942 9.76996 21.3384 10.0625C21.745 10.4425 22 10.9833 22 11.5833C22 12.7325 21.065 13.6667 19.9167 13.6667H17.8333C17.3733 13.6667 17 13.2942 17 12.8333C17 12.3725 17.3733 12 17.8333 12H19.9167C20.1467 12 20.3334 11.8125 20.3334 11.5833ZM5.33317 6.99993C5.33317 6.53992 4.959 6.16658 4.49983 6.16658C4.04066 6.16658 3.66648 6.53992 3.66648 6.99993C3.66648 7.45993 3.29315 7.83327 2.83314 7.83327C2.37314 7.83327 1.9998 7.46077 1.9998 6.99993C1.9998 5.62158 3.12148 4.4999 4.49983 4.4999C5.87818 4.4999 6.99986 5.62158 6.99986 6.99993C6.99986 8.13661 5.94401 8.89578 4.88483 9.49996H6.16652C6.62652 9.49996 6.99986 9.87246 6.99986 10.3333C6.99986 10.7941 6.62652 11.1666 6.16652 11.1666H3.33981C2.70231 11.1666 2.19313 10.82 2.0423 10.2833C1.88563 9.72579 2.1573 9.13829 2.73397 8.78745C2.94231 8.66078 3.19398 8.52495 3.46398 8.37911C3.92649 8.12911 5.33317 7.36993 5.33317 6.99993ZM9.74406 4.56656C9.41822 4.24073 9.41822 3.71405 9.74406 3.38822L10.7791 2.3532C11.1249 2.0082 11.6399 1.90653 12.0908 2.0932C12.5424 2.2807 12.8333 2.71654 12.8333 3.20488V7.8341C12.8333 8.29494 12.4599 8.66745 11.9999 8.66745C11.5399 8.66745 11.1666 8.29494 11.1666 7.8341V4.32239L10.9224 4.56656C10.5974 4.8924 10.0699 4.8924 9.74406 4.56656Z"/>
</svg>