<svg xmlns="http://www.w3.org/2000/svg" width="24" height="24" viewBox="0 0 24 24" fill="currentColor">
<path d="M9.08321 16.279L6.38529 16.4869C6.15058 17.1724 5.76504 17.7981 5.25282 18.3168L5.2542 18.3182L4.55538 19.0598C4.46441 19.1564 4.46715 19.3083 4.5609 19.4023C4.65751 19.4989 4.8146 19.4984 4.91031 19.4009L5.58842 18.709L5.90951 18.3879C6.36092 17.9365 6.93684 17.6301 7.56334 17.5075C7.79954 17.4612 8.01671 17.3455 8.18689 17.1753L9.08321 16.279ZM8.22418 14.3386L11.2577 14.1045L13.5751 11.7871L12.1754 10.3874L8.22418 14.3386ZM16.8345 11.341C16.9689 11.2063 16.969 10.9882 16.8345 10.8535L13.1484 7.16741C13.0137 7.03297 12.7956 7.03292 12.6609 7.16741L12.4599 7.36836C12.3288 7.49943 12.3288 7.71237 12.4599 7.84345L16.1584 11.5419C16.2895 11.673 16.5024 11.673 16.6335 11.5419L16.8345 11.341ZM19.4467 6.82698C20.074 6.19975 20.074 5.18235 19.4467 4.55512C18.8195 3.92792 17.8021 3.92791 17.1749 4.55512L15.2697 6.46031L17.5416 8.73216L19.4467 6.82698ZM18.7956 10.3066C19.0915 11.1337 18.911 12.0927 18.2487 12.7552L18.0477 12.9562C17.2189 13.785 15.9237 13.8587 15.0094 13.1813L9.60111 18.5895C9.14971 19.0409 8.57377 19.3474 7.94728 19.47C7.71107 19.5162 7.49392 19.6319 7.32373 19.8021L7.01644 20.1094L6.33834 20.8013C5.46321 21.6936 4.02739 21.6992 3.14462 20.8144C2.28824 19.9559 2.2679 18.5722 3.09904 17.6891L3.79786 16.9474C3.80474 16.9401 3.81148 16.9324 3.81858 16.9254C4.20043 16.5434 4.46584 16.0606 4.58231 15.5332L4.62719 15.3295C4.66832 15.1434 4.76175 14.9726 4.8965 14.8379L10.7874 8.94692C10.1458 8.03555 10.2306 6.76921 11.0457 5.95415L11.2467 5.7532C11.9091 5.09091 12.8682 4.91042 13.6953 5.2063L15.7607 3.14091C17.1689 1.73264 19.4527 1.73266 20.861 3.14091C22.2692 4.54919 22.2692 6.83292 20.861 8.2412L18.7956 10.3066Z" style="fill:#455A64;fill:color(display-p3 0.2706 0.3529 0.3922);fill-opacity:1;"/>
</svg>