<svg xmlns="http://www.w3.org/2000/svg" width="24" height="24" viewBox="0 0 24 24" fill="currentColor">
<path d="M2 12C2 16.0948 4.46232 19.6126 7.98579 21.1592C7.95767 20.461 7.98079 19.6227 8.15985 18.8629C8.35212 18.0511 9.44656 13.4139 9.44656 13.4139C9.44656 13.4139 9.12711 12.7754 9.12711 11.8318C9.12711 10.3498 9.986 9.24304 11.0557 9.24304C11.9653 9.24304 12.4047 9.92624 12.4047 10.7444C12.4047 11.6587 11.8215 13.0264 11.5216 14.2932C11.2711 15.354 12.0535 16.2192 13.1 16.2192C14.9946 16.2192 16.2707 13.7857 16.2707 10.9025C16.2707 8.71078 14.7945 7.07033 12.1097 7.07033C9.07625 7.07033 7.1865 9.33249 7.1865 11.8593C7.1865 12.7306 7.44338 13.3449 7.84571 13.8207C8.03071 14.0392 8.05642 14.1271 7.98946 14.3781C7.94149 14.562 7.83134 15.005 7.78572 15.1806C7.71915 15.4338 7.51392 15.5244 7.28502 15.4309C5.88785 14.8605 5.23715 13.3304 5.23715 11.6104C5.23715 8.76977 7.6329 5.36356 12.3841 5.36356C16.202 5.36356 18.7149 8.12634 18.7149 11.092C18.7149 15.0149 16.534 17.9455 13.3192 17.9455C12.2396 17.9455 11.224 17.3619 10.8761 16.6991C10.8761 16.6991 10.2956 19.0031 10.1726 19.448C9.96061 20.219 9.54562 20.9896 9.16617 21.5902C10.0863 21.8623 11.0408 22.0004 12.0003 22.0003C17.5224 22.0003 21.9999 17.5231 21.9999 12C21.9999 6.47721 17.5224 2 12.0003 2C6.47761 2 2 6.47721 2 12Z"/>
</svg>