<svg xmlns="http://www.w3.org/2000/svg" width="24" height="24" viewBox="0 0 24 24" fill="currentColor">
<path d="M21.6659 17.8353H20.36C20.2894 18.4471 19.8894 19.2118 18.8894 19.2118C17.9718 19.2118 17.313 18.5765 16.6777 17.6118C17.727 16.81 18.5752 15.7749 19.1551 14.5885C19.735 13.4021 20.0307 12.097 20.0188 10.7765C20.0188 5.52941 15.6894 2 11.16 2C6.68942 2 2.32471 5.56471 2.32471 10.7882C2.32471 15.9647 6.68942 19.5294 11.16 19.5294C11.9365 19.5294 12.7129 19.4235 13.4541 19.2235C14.3247 20.7177 15.4894 22 17.6894 22C21.3365 22 21.7482 18.6353 21.6659 17.8353ZM15.2541 15.2706C14.3953 13.9647 13.3012 12.9412 11.1835 12.9412C9.81883 12.9412 8.76 13.3882 8.10118 13.9529L8.64236 15.0353C8.92471 14.9059 9.21883 14.8588 9.52471 14.8588C11.1129 14.8588 11.9247 16.2353 12.6188 17.6C12.1718 17.7294 11.6894 17.7882 11.16 17.7882C7.80706 17.7882 6.36 15.4235 6.36 10.7882C6.36 6.12941 7.80706 3.74118 11.16 3.74118C14.56 3.74118 16.0188 6.12941 16.0188 10.7882C16.0071 12.6471 15.7718 14.1529 15.2541 15.2706Z"/>
</svg>