<svg xmlns="http://www.w3.org/2000/svg" width="24" height="24" viewBox="0 0 24 24" fill="currentColor">
<path d="M10.6169 15.2274C10.0909 17.9814 9.44993 20.6214 7.54893 22.0004C6.96293 17.8384 8.40993 14.7134 9.08293 11.3954C7.93593 9.46543 9.22093 5.58343 11.6379 6.54043C14.6129 7.71643 9.06193 13.7124 12.7879 14.4624C16.6789 15.2434 18.2669 7.71243 15.8539 5.26343C12.3689 1.72543 5.70793 5.18043 6.52793 10.2454C6.72693 11.4834 8.00593 11.8584 7.03893 13.5674C4.80793 13.0734 4.14193 11.3134 4.22793 8.96743C4.36593 5.12743 7.67693 2.44043 10.9989 2.06743C15.1999 1.59643 19.1429 3.61043 19.6879 7.56143C20.3009 12.0224 17.7919 16.8544 13.2989 16.5064C12.0809 16.4114 11.5709 15.8074 10.6169 15.2274Z"/>
</svg>