<svg xmlns="http://www.w3.org/2000/svg" width="24" height="24" viewBox="0 0 24 24" fill="currentColor">
<path d="M12 2.5C17.2467 2.5 21.5 6.7533 21.5 12C21.5 17.2467 17.2467 21.5 12 21.5C6.7533 21.5 2.5 17.2467 2.5 12C2.5 6.7533 6.7533 2.5 12 2.5ZM12 3.5C7.30558 3.5 3.5 7.30558 3.5 12C3.5 16.6944 7.30558 20.5 12 20.5C16.6944 20.5 20.5 16.6944 20.5 12C20.5 7.30558 16.6944 3.5 12 3.5ZM16.0977 8.51953C16.0992 8.51957 16.1056 8.52047 16.1152 8.52148C16.1197 8.52195 16.1243 8.52273 16.1289 8.52344C16.1315 8.54558 16.1357 8.57566 16.1377 8.61035C16.1411 8.6679 16.141 8.71954 16.1377 8.75391C15.9895 10.31 15.3423 14.1258 15.0107 15.8984C14.9482 16.2326 14.8648 16.3999 14.8086 16.4746C14.7887 16.501 14.7739 16.5116 14.7666 16.5166C14.6257 16.528 14.4798 16.4874 14.2734 16.3662C14.1673 16.3039 14.0568 16.2274 13.9277 16.1357C13.8036 16.0476 13.6595 15.9435 13.5088 15.8447C13.0727 15.5588 12.7313 15.3267 12.3906 15.0947C12.0499 14.8627 11.709 14.6305 11.2783 14.3467C11.1099 14.2357 11.0365 14.1565 11.0049 14.1162C11.0284 14.0791 11.074 14.0185 11.165 13.9258C11.221 13.8688 11.2827 13.8105 11.3545 13.7412C11.424 13.6741 11.501 13.5987 11.5781 13.5186C11.5778 13.5189 11.5809 13.5166 11.5879 13.5098C11.5952 13.5026 11.6045 13.4925 11.6172 13.4805C11.6426 13.4563 11.677 13.4248 11.7188 13.3857C11.8022 13.3077 11.914 13.2038 12.0449 13.082C12.3062 12.8392 12.6421 12.5259 12.9756 12.2109C13.3085 11.8966 13.6427 11.5772 13.8975 11.3213C14.0242 11.194 14.1365 11.0769 14.2207 10.9824C14.2621 10.9359 14.3032 10.8877 14.3369 10.8428C14.3535 10.8206 14.3731 10.7928 14.3916 10.7617C14.4054 10.7386 14.4416 10.6762 14.4609 10.5938C14.4792 10.5156 14.4834 10.4209 14.4697 10.3281C14.4577 10.2469 14.4224 10.1061 14.3115 9.98145L14.2598 9.92969L14.2021 9.88379C14.0671 9.7892 13.9244 9.7693 13.8291 9.76855C13.778 9.76816 13.7301 9.77319 13.6914 9.7793L13.6094 9.7959C13.5298 9.81401 13.4613 9.85207 13.4551 9.85547C13.429 9.86926 13.4 9.8862 13.3711 9.90332C13.3121 9.93823 13.2335 9.98661 13.1387 10.0469C12.9481 10.168 12.6762 10.3455 12.3242 10.5781C11.6192 11.0441 10.5847 11.7368 9.22266 12.6562L9.21875 12.6592C8.86587 12.9014 8.6076 12.9755 8.42871 12.9717C8.31089 12.9691 8.09655 12.9318 7.81934 12.8623C7.55381 12.7957 7.26593 12.7087 7.01758 12.6279C6.83192 12.5676 6.72883 12.5382 6.58008 12.4893C6.54807 12.4787 6.51895 12.4667 6.49121 12.457C6.55265 12.4272 6.62497 12.3936 6.71094 12.3594L6.71875 12.3564L6.72656 12.3525C9.64224 11.0822 11.5827 10.2464 12.5508 9.84375C13.9406 9.26568 14.7682 8.93102 15.2939 8.74023C15.8283 8.54632 15.9994 8.52126 16.0977 8.51953Z" stroke="black"/>
</svg>