<svg xmlns="http://www.w3.org/2000/svg" width="24" height="24" viewBox="0 0 24 24" fill="currentColor">
<path d="M12.0024 2C14.5489 2.00013 16.9679 2.98243 18.802 4.68434L18.9462 4.82177L19.0028 4.87343L19.0593 4.81885L20.4756 3.40163C20.7221 3.15507 21.1452 3.33053 21.1452 3.67844V7.5529L21.1306 7.70008C21.0625 8.03329 20.7676 8.28381 20.4142 8.28393H16.5397C16.1903 8.28393 16.0167 7.86134 16.2629 7.61528L17.3857 6.4934L17.5388 6.33939L17.5982 6.27896L17.5349 6.2234L17.374 6.07817C15.9169 4.7579 14.0099 3.99733 12.0034 3.99717C7.5899 3.99807 4.0001 7.58772 4.0001 12.0005C4.00037 16.413 7.58986 20.0019 12.0024 20.0019C12.1306 20.0018 12.257 19.9993 12.3845 19.9931C12.9189 19.9674 13.4028 20.3956 13.4284 20.9434C13.4541 21.4938 13.0285 21.9611 12.4771 21.9873C12.3194 21.9948 12.1609 22 12.0024 22C6.48854 22 2.00222 17.5143 2.00195 12.0005C2.00196 6.48642 6.48837 2 12.0024 2ZM16.5114 18.8069C17.0625 18.8073 17.5103 19.2549 17.5105 19.8059C17.5103 20.3571 17.0624 20.8046 16.5114 20.805C15.9602 20.8048 15.5116 20.3571 15.5114 19.8059C15.5116 19.2548 15.9602 18.8071 16.5114 18.8069ZM19.7913 15.5016C20.3427 15.5017 20.7903 15.9493 20.7904 16.5007C20.7902 17.052 20.3426 17.4997 19.7913 17.4998C19.2402 17.4995 18.7925 17.0518 18.7922 16.5007C18.7924 15.9495 19.2401 15.5019 19.7913 15.5016ZM12.0024 7.14353C12.5537 7.1438 13.0005 7.59126 13.0005 8.1426V11.4196L13.0425 11.4439L15.4938 12.8436L15.5835 12.9001L15.5845 12.9011C15.9965 13.1955 16.1269 13.7606 15.871 14.2092L15.8701 14.2111L15.795 14.3232L15.794 14.3242C15.6009 14.5752 15.3057 14.7139 15.0016 14.7141C14.833 14.714 14.6626 14.6721 14.5074 14.5835L11.5063 12.868C11.1945 12.6893 11.0035 12.3585 11.0034 12.0005V8.1426C11.0034 7.59108 11.4509 7.14353 12.0024 7.14353ZM21.0029 11.0014C21.5544 11.0014 22.002 11.449 22.002 12.0005C22.0017 12.5518 21.5542 12.9986 21.0029 12.9986C20.4516 12.9985 20.0041 12.5518 20.0038 12.0005C20.0038 11.449 20.4514 11.0015 21.0029 11.0014Z"/>
</svg>