<svg xmlns="http://www.w3.org/2000/svg" width="24" height="24" viewBox="0 0 24 24" fill="currentColor">
<path fill-rule="evenodd" clip-rule="evenodd" d="M12 22C6.47715 22 2 17.5228 2 12C2 6.47715 6.47715 2 12 2C17.5228 2 22 6.47715 22 12C22 17.5228 17.5228 22 12 22ZM14.2193 6.23523C14.4085 7.03722 15.1287 7.63466 15.9886 7.63466C16.9926 7.63466 17.8065 6.82074 17.8065 5.81676C17.8065 4.81278 16.9926 3.99886 15.9886 3.99886C15.1108 3.99886 14.3787 4.62102 14.2082 5.44858C12.7381 5.60625 11.5901 6.85312 11.5901 8.3642V8.37358C9.99119 8.44091 8.53125 8.89602 7.37216 9.61449C6.94176 9.28125 6.40142 9.08267 5.81506 9.08267C4.40795 9.08267 3.26761 10.223 3.26761 11.6301C3.26761 12.6511 3.86761 13.5307 4.73438 13.9372C4.81875 16.8946 8.04119 19.2733 12.0051 19.2733C15.969 19.2733 19.1957 16.892 19.2759 13.9321C20.1358 13.523 20.7307 12.646 20.7307 11.631C20.7307 10.2239 19.5903 9.08352 18.1832 9.08352C17.5994 9.08352 17.0616 9.2804 16.6321 9.61108C15.4628 8.8875 13.9866 8.43239 12.3716 8.37187C12.3716 7.28949 13.1761 6.38267 14.2193 6.23523ZM8.63949 11.6139C7.92614 11.6139 7.3125 12.323 7.26989 13.2469C7.22727 14.1707 7.85199 14.5466 8.56619 14.5466C9.2804 14.5466 9.81307 14.2108 9.85568 13.2869C9.8983 12.3631 9.35284 11.6139 8.63949 11.6139ZM16.7412 13.2469C16.6994 12.323 16.0858 11.6139 15.3716 11.6139C14.6574 11.6139 14.1128 12.3631 14.1554 13.2869C14.198 14.2116 14.7315 14.5466 15.4449 14.5466C16.1582 14.5466 16.7838 14.1707 16.7412 13.2469ZM14.6898 15.6614C14.7418 15.5369 14.6565 15.398 14.5227 15.3844C13.7378 15.3051 12.8906 15.2616 12.0051 15.2616C11.1196 15.2616 10.2716 15.3051 9.4875 15.3844C9.35369 15.398 9.26847 15.5369 9.32046 15.6614C9.76023 16.7105 10.7957 17.4477 12.0051 17.4477C13.2145 17.4477 14.2509 16.7105 14.6898 15.6614Z"/>
</svg>