<svg xmlns="http://www.w3.org/2000/svg" width="24" height="24" viewBox="0 0 24 24" fill="none">
<path d="M19.6406 2H4.35931C3.0563 2 2 3.0563 2 4.35931V19.639C2 20.942 3.0563 21.9983 4.35931 21.9983H19.6406C20.9436 21.9983 21.9999 20.942 21.9999 19.639V4.35931C21.9999 3.0563 20.9436 2 19.6406 2Z" fill="url(#paint0_linear_4272_988)"/>
<path d="M10.1615 11.3986C10.1615 11.3986 11.8594 11.2724 11.8594 9.28181C11.8594 7.2912 10.4704 6.31934 8.71099 6.31934H2.92188V17.4448H8.71099C8.71099 17.4448 12.2443 17.5564 12.2443 14.1605C12.2443 14.1605 12.3995 11.3986 10.1615 11.3986ZM5.472 8.29701H8.70614C8.70614 8.29701 9.49365 8.29701 9.49365 9.45484C9.49365 10.6127 9.03117 10.7808 8.50562 10.7808H5.47361L5.472 8.29701ZM8.5606 15.4671H5.47361V12.4949H8.70776C8.70776 12.4949 9.88013 12.4788 9.88013 14.0231C9.88337 15.3086 9.02632 15.4542 8.56222 15.4671H8.5606ZM16.9581 9.15083C12.6793 9.15083 12.6841 13.4247 12.6841 13.4247C12.6841 13.4247 12.3898 17.6776 16.9581 17.6776C16.9581 17.6776 20.7646 17.8943 20.7646 14.72H18.808C18.808 14.72 18.8727 15.9167 17.0292 15.9167C17.0292 15.9167 15.0709 16.0476 15.0709 13.9762H20.8358C20.8358 13.9762 21.4616 9.15083 16.9581 9.15083ZM18.698 12.4949H15.0434C15.0434 12.4949 15.2828 10.7808 17.0017 10.7808C18.7207 10.7808 18.698 12.4949 18.698 12.4949ZM14.5648 6.97587H19.154V8.34553H14.5648V6.97587Z" fill="white"/>
<defs>
<linearGradient id="paint0_linear_4272_988" x1="12" y1="2" x2="12" y2="21.9999" gradientUnits="userSpaceOnUse">
<stop stop-color="#005CFF"/>
<stop offset="1" stop-color="#0047AD"/>
</linearGradient>
</defs>
</svg>