<svg xmlns="http://www.w3.org/2000/svg" width="24" height="24" viewBox="0 0 24 24" fill="currentColor">
<path d="M12 1C18.0751 1 23 5.92487 23 12C23 18.0751 18.0751 23 12 23C5.92487 23 1 18.0751 1 12C1 5.92487 5.92487 1 12 1ZM13.6953 13.7061C13.4286 13.7885 13.1629 13.8783 12.9004 13.9795C10.346 14.9644 8.13954 16.7875 6.59277 19.1943C8.09827 20.3277 9.97047 21 12 21C13.2419 21 14.4248 20.7479 15.501 20.293C15.1024 18.0383 14.4959 15.834 13.6953 13.7061ZM20.8379 13.6973C19.1513 13.1803 17.393 13.0369 15.667 13.2695C16.3801 15.2079 16.9399 17.2053 17.3389 19.2441C19.1254 17.9253 20.4055 15.9623 20.8379 13.6973ZM19.1846 6.58105C17.8856 7.84531 16.1774 8.92287 14.1826 9.77051C14.4365 10.2961 14.6792 10.8269 14.9092 11.3633C16.929 11.0184 18.9991 11.1149 20.9912 11.6572C20.9199 9.75446 20.2592 8.00358 19.1846 6.58105ZM8.15039 3.86328C5.71708 5.01655 3.8852 7.22896 3.24707 9.90527C6.10105 9.86985 8.88823 9.44613 11.3594 8.67676C10.4198 6.99652 9.34818 5.38644 8.15039 3.86328ZM12 3C11.3677 3 10.7507 3.06541 10.1553 3.18945C11.3106 4.71494 12.3489 6.3187 13.2637 7.9873C15.1583 7.19892 16.6976 6.2182 17.8105 5.12891C16.2425 3.80159 14.2153 3 12 3ZM3 12C3 14.2088 3.79682 16.2308 5.11719 17.7969C6.87193 15.203 9.32706 13.2136 12.1807 12.1133C12.4309 12.0168 12.6839 11.9295 12.9375 11.8477C12.7344 11.3855 12.5227 10.9272 12.3008 10.4736C9.4629 11.402 6.25684 11.8921 3.00195 11.9062C3.00163 11.9375 3 11.9687 3 12Z"/>
</svg>