<svg xmlns="http://www.w3.org/2000/svg" width="24" height="24" viewBox="0 0 24 24" fill="none">
<path d="M12 22C17.5228 22 22 17.5228 22 12C22 6.47715 17.5228 2 12 2C6.47715 2 2 6.47715 2 12C2 17.5228 6.47715 22 12 22Z" fill="#E74D89"/>
<path fill-rule="evenodd" clip-rule="evenodd" d="M12 23C18.0751 23 23 18.0751 23 12C23 5.92487 18.0751 1 12 1C5.92487 1 1 5.92487 1 12C1 18.0751 5.92487 23 12 23ZM19.1875 6.58246C20.2612 8.00477 20.9225 9.75588 20.9936 11.6579C19.001 11.116 16.9301 11.02 14.9096 11.365C14.6794 10.8283 14.4361 10.2972 14.182 9.77129C16.1775 8.92345 17.8881 7.84686 19.1875 6.58246ZM12 3C14.216 3 16.2449 3.80088 17.8131 5.12898C16.6999 6.21821 15.1591 7.1985 13.2641 7.98711C12.3494 6.31869 11.3119 4.71439 10.1569 3.18889C10.7518 3.06508 11.3683 3 12 3ZM20.8406 13.6952C20.4087 15.9612 19.1271 17.926 17.3401 19.2453C16.941 17.2061 16.3806 15.2081 15.6674 13.2693C17.3939 13.0367 19.1536 13.178 20.8406 13.6952ZM12.1811 12.1131C9.32689 13.2135 6.87126 15.2036 5.11638 17.7982C3.79581 16.2321 3 14.209 3 12C3 11.9696 3.00015 11.9393 3.00045 11.9089C6.25587 11.8945 9.46277 11.4021 12.3012 10.4734C12.523 10.9268 12.7338 11.3854 12.9369 11.8475C12.6835 11.9292 12.4311 12.0167 12.1811 12.1131ZM6.59144 19.1942C8.13827 16.787 10.3461 14.9642 12.9008 13.9793C13.1631 13.8782 13.4283 13.7883 13.6947 13.7059C14.4955 15.8341 15.1028 18.0384 15.5017 20.2934C14.4254 20.7484 13.2421 21 12 21C9.97007 21 8.0971 20.328 6.59144 19.1942ZM8.14972 3.86284C5.71613 5.01638 3.88256 7.22949 3.2448 9.90635C6.09932 9.87092 8.88711 9.44604 11.3588 8.67656C10.4192 6.99625 9.34746 5.38612 8.14972 3.86284Z" fill="#B2215A"/>
</svg>