<svg xmlns="http://www.w3.org/2000/svg" width="24" height="24" viewBox="0 0 24 24" fill="none">
<path d="M22.9894 6.92111C22.8915 9.04843 21.3957 11.9614 18.5027 15.6586C15.5115 19.5205 12.9808 21.4514 10.9107 21.4513C9.62867 21.4513 8.54302 20.2756 7.65683 17.9235C7.06455 15.7674 6.47304 13.6114 5.88101 11.4554C5.22247 9.1045 4.51649 7.92752 3.7617 7.92752C3.59713 7.92752 3.02117 8.27156 2.03512 8.95684L1 7.63221C2.07755 6.69237 3.1478 5.74433 4.21064 4.78817C5.65869 3.54508 6.7458 2.89141 7.47026 2.82529C9.18248 2.66193 10.2364 3.8246 10.6319 6.31329C11.0594 8.99833 11.3551 10.6685 11.5214 11.3221C12.0148 13.5497 12.5578 14.6621 13.1512 14.6621C13.6116 14.6621 14.3033 13.9398 15.2255 12.4949C16.147 11.0497 16.6404 9.95012 16.7071 9.19481C16.8382 7.94763 16.3445 7.3225 15.2255 7.3225C14.6989 7.3225 14.1559 7.44289 13.5974 7.68086C14.6785 4.16288 16.7442 2.45433 19.7935 2.5518C22.054 2.61766 23.1196 4.0741 22.9894 6.92111Z" fill="white"/>
<path d="M22.9894 6.92111C22.8915 9.04843 21.3957 11.9614 18.5027 15.6586C15.5115 19.5205 12.9808 21.4514 10.9107 21.4513C9.62867 21.4513 8.54302 20.2756 7.65683 17.9235C7.06455 15.7674 6.47304 13.6114 5.88101 11.4554C5.22247 9.1045 4.51649 7.92752 3.7617 7.92752C3.59713 7.92752 3.02117 8.27156 2.03512 8.95684L1 7.63221C2.07755 6.69237 3.1478 5.74433 4.21064 4.78817C5.65869 3.54508 6.7458 2.89141 7.47026 2.82529C9.18248 2.66193 10.2364 3.8246 10.6319 6.31329C11.0594 8.99833 11.3551 10.6685 11.5214 11.3221C12.0148 13.5497 12.5578 14.6621 13.1512 14.6621C13.6116 14.6621 14.3033 13.9398 15.2255 12.4949C16.147 11.0497 16.6404 9.95012 16.7071 9.19481C16.8382 7.94763 16.3445 7.3225 15.2255 7.3225C14.6989 7.3225 14.1559 7.44289 13.5974 7.68086C14.6785 4.16288 16.7442 2.45433 19.7935 2.5518C22.054 2.61766 23.1196 4.0741 22.9894 6.92111Z" fill="#32B8E8"/>
</svg>