<svg xmlns="http://www.w3.org/2000/svg" width="24" height="24" viewBox="0 0 24 24" fill="currentColor">
<path d="M14 2L20 8V13.2227C19.5257 13.0891 19.0258 13.0166 18.5088 13.0166C18.3373 13.0166 18.1675 13.0247 18 13.04V9H14.1113C13.4977 9 13 8.50232 13 7.88867V4H6V20H13.2236C13.4328 20.7423 13.7929 21.421 14.2705 22H6C5.46957 22 4.96101 21.7891 4.58594 21.4141C4.21086 21.039 4 20.5304 4 20V4C4 3.46957 4.21086 2.96101 4.58594 2.58594C4.96101 2.21086 5.46957 2 6 2H14Z"/>
<path d="M12 16C12.5523 16 13 16.4477 13 17C13 17.5523 12.5523 18 12 18H9C8.44772 18 8 17.5523 8 17C8 16.4477 8.44772 16 9 16H12Z"/>
<path d="M15 12C15.5523 12 16 12.4477 16 13C16 13.5523 15.5523 14 15 14H9C8.44772 14 8 13.5523 8 13C8 12.4477 8.44772 12 9 12H15Z"/>
<path d="M16.5432 23.027C17.1918 23.6757 17.973 24 18.8867 24C19.8004 24 20.5817 23.6757 21.2305 23.027C21.8791 22.3783 22.2034 21.597 22.2034 20.6833V18.2832C22.2034 18.0453 22.1229 17.8458 21.9619 17.6848C21.8009 17.5238 21.6015 17.4433 21.3635 17.4433C21.1256 17.4433 20.9261 17.5238 20.7651 17.6848C20.6041 17.8458 20.5236 18.0453 20.5236 18.2832V20.6833C20.5236 21.137 20.3642 21.5241 20.0455 21.8444C19.7267 22.1647 19.3404 22.3248 18.8867 22.3248C18.4331 22.3248 18.0462 22.1647 17.7258 21.8444C17.4054 21.5241 17.2452 21.137 17.2452 20.6833V17.076C17.2452 16.9691 17.2853 16.8756 17.3654 16.7954C17.4456 16.7153 17.5391 16.6752 17.646 16.6752C17.7529 16.6752 17.8464 16.7153 17.9266 16.7954C18.0067 16.8756 18.0468 16.9691 18.0468 17.076V19.8434C18.0468 20.0813 18.1277 20.2808 18.2893 20.4418C18.451 20.6028 18.6501 20.6833 18.8867 20.6833C19.1233 20.6833 19.3217 20.6033 19.4817 20.4432C19.6419 20.2831 19.722 20.0848 19.722 19.8482V17.076C19.722 16.4948 19.5211 16.0036 19.1192 15.6022C18.7173 15.2007 18.2259 15 17.645 15C17.064 15 16.5729 15.2007 16.1718 15.6022C15.7706 16.0036 15.57 16.4948 15.57 17.076V20.6833C15.57 21.597 15.8944 22.3783 16.5432 23.027Z"/>
</svg>