<svg xmlns="http://www.w3.org/2000/svg" width="24" height="24" viewBox="0 0 24 24" fill="currentColor">
<path fill-rule="evenodd" clip-rule="evenodd" d="M6.52658 11.8944C9.44178 10.6243 11.3857 9.787 12.3584 9.38244C15.1355 8.22735 15.7125 8.02669 16.0886 8.02007C16.1714 8.01861 16.3563 8.03911 16.4761 8.13633C16.5773 8.21842 16.6051 8.32931 16.6185 8.40715C16.6318 8.48498 16.6484 8.66228 16.6352 8.80081C16.4847 10.382 15.8335 14.2193 15.5022 15.9903C15.3621 16.7397 15.086 16.9909 14.8188 17.0155C14.2381 17.069 13.7971 16.6318 13.2347 16.2631C12.3545 15.6861 11.8573 15.327 11.003 14.764C10.0157 14.1134 10.6557 13.7558 11.2184 13.1714C11.3657 13.0184 13.9243 10.6911 13.9738 10.48C13.98 10.4536 13.9858 10.3552 13.9273 10.3032C13.8688 10.2512 13.7825 10.269 13.7203 10.2831C13.632 10.3032 12.226 11.2325 9.5022 13.0711C9.10311 13.3452 8.74162 13.4787 8.41774 13.4717C8.06069 13.464 7.37386 13.2698 6.86328 13.1038C6.23703 12.9003 5.7393 12.7926 5.78264 12.4469C5.80522 12.2668 6.05319 12.0827 6.52658 11.8944Z"/>
<path d="M20 12C20 7.58172 16.4183 4 12 4C7.58172 4 4 7.58172 4 12C4 16.4183 7.58172 20 12 20C16.4183 20 20 16.4183 20 12ZM22 12C22 17.5228 17.5228 22 12 22C6.47715 22 2 17.5228 2 12C2 6.47715 6.47715 2 12 2C17.5228 2 22 6.47715 22 12Z"/>
</svg>