<svg xmlns="http://www.w3.org/2000/svg" width="24" height="24" viewBox="0 0 24 24" fill="currentColor">
<path fill-rule="evenodd" clip-rule="evenodd" d="M5.63636 2C4.67194 2 3.74702 2.38312 3.06507 3.06507C2.38312 3.74702 2 4.67194 2 5.63636V18.3636C2 19.3281 2.38312 20.253 3.06507 20.9349C3.74702 21.6169 4.67194 22 5.63636 22H18.3636C19.3281 22 20.253 21.6169 20.9349 20.9349C21.6169 20.253 22 19.3281 22 18.3636V5.63636C22 4.67194 21.6169 3.74702 20.9349 3.06507C20.253 2.38312 19.3281 2 18.3636 2H5.63636ZM12 5.49091C8.29909 5.49091 5.18182 7.93091 5.18182 11.07C5.18182 13.9418 7.79727 16.2318 11.0673 16.5973C11.1236 16.6019 11.1775 16.6224 11.2227 16.6564C11.2355 16.6654 11.2461 16.677 11.2539 16.6905C11.2618 16.704 11.2666 16.719 11.2682 16.7345C11.2996 17.1934 11.239 17.6539 11.09 18.0891C11.0721 18.1361 11.066 18.1867 11.072 18.2365C11.0781 18.2864 11.0963 18.3341 11.1249 18.3754C11.1536 18.4166 11.1919 18.4503 11.2365 18.4734C11.2811 18.4966 11.3307 18.5085 11.3809 18.5082C11.4673 18.5082 11.5664 18.4818 11.6482 18.4573C11.7582 18.4227 11.8665 18.383 11.9727 18.3382C12.2182 18.2373 12.5309 18.0909 12.8855 17.9045C13.5945 17.5336 14.4818 16.9973 15.3518 16.3373C16.22 15.6782 17.0809 14.8873 17.7273 14.0055C18.3727 13.1236 18.8182 12.1291 18.8182 11.07C18.8182 7.93091 15.7009 5.49091 12 5.49091ZM7.19636 12.7745V9.52H8.12636V11.8445H9.52091V12.7745H7.19636ZM9.98546 9.52V12.7745H10.9155V9.52H9.98546ZM11.2255 12.7745V9.52H12.2791L13.0845 11.0318V9.52091H14.0145V12.7755H12.96L12.1555 11.2636V12.7745H11.2255ZM16.3391 9.52H14.3245V12.7745H16.3391V11.8455H15.2536V11.6136H16.3391V10.6818H15.2536V10.4491H16.3391V9.52Z"/>
</svg>