<svg xmlns="http://www.w3.org/2000/svg" width="24" height="24" viewBox="0 0 24 24" fill="currentColor">
<path d="M20.3334 11.5842C20.3334 11.355 20.1467 11.1675 19.9167 11.1675H19.5C19.04 11.1675 18.6667 10.795 18.6667 10.3342C18.6667 9.87333 19.04 9.50082 19.5 9.50082C19.73 9.50082 19.9167 9.31332 19.9167 9.08415C19.9167 8.85498 19.73 8.66747 19.5 8.66747H17.8333C17.3733 8.66747 17 8.29497 17 7.83413C17 7.37329 17.3733 7.00078 17.8333 7.00078H19.5C20.6484 7.00078 21.5834 7.93496 21.5834 9.08415C21.5834 9.43749 21.4942 9.77083 21.3384 10.0633C21.745 10.4433 22.0001 10.9842 22.0001 11.5842C22.0001 12.7334 21.065 13.6676 19.9167 13.6676H17.8333C17.3733 13.6676 17 13.2951 17 12.8342C17 12.3734 17.3733 12.0009 17.8333 12.0009H19.9167C20.1467 12.0009 20.3334 11.8134 20.3334 11.5842ZM3.46392 8.37997C3.19391 8.52581 2.94224 8.66164 2.7339 8.78831C2.15806 9.13915 1.88556 9.72666 2.04223 10.2842C2.19223 10.8208 2.70224 11.1675 3.33975 11.1675H6.16646C6.62647 11.1675 6.99981 10.795 6.99981 10.3342C6.99981 9.87333 6.62647 9.50082 6.16646 9.50082H4.88477C5.94396 8.89665 6.99981 8.13747 6.99981 7.00078C6.99981 5.62243 5.87812 4.50074 4.49977 4.50074C3.12141 4.50074 1.99973 5.62243 1.99973 7.00078C1.99973 7.46162 2.37307 7.83413 2.83307 7.83413C3.29308 7.83413 3.66642 7.46162 3.66642 7.00078C3.66642 6.53994 4.04059 6.16743 4.49977 6.16743C4.95894 6.16743 5.33311 6.54077 5.33311 7.00078C5.33311 7.37079 3.92642 8.12997 3.46392 8.37997ZM10.9224 4.56741L11.1665 4.32324V7.83413C11.1665 8.29497 11.5399 8.66747 11.9999 8.66747C12.4599 8.66747 12.8332 8.29497 12.8332 7.83413V3.20489C12.8332 2.71654 12.5416 2.2807 12.0907 2.0932C11.639 1.90653 11.124 2.0082 10.779 2.35321L9.74402 3.38822C9.41818 3.71406 9.41818 4.24074 9.74402 4.56657C10.0699 4.89241 10.5974 4.89325 10.9224 4.56741ZM12.8332 10.3342H11.1665C10.0157 10.3342 9.08317 11.2667 9.08317 12.4175V19.9177C9.08317 21.0685 10.0157 22.001 11.1665 22.001H12.8332C13.9841 22.001 14.9166 21.0685 14.9166 19.9177V12.4175C14.9166 11.2667 13.9841 10.3342 12.8332 10.3342ZM19.9167 15.3343H18.6667C17.5158 15.3343 16.5833 16.2668 16.5833 17.4176V19.9177C16.5833 21.0685 17.5158 22.001 18.6667 22.001H19.9167C21.0675 22.001 22.0001 21.0685 22.0001 19.9177V17.4176C22.0001 16.2668 21.0675 15.3343 19.9167 15.3343ZM5.33311 12.8342H4.08309C2.93224 12.8342 1.99973 13.7667 1.99973 14.9176V19.9177C1.99973 21.0685 2.93224 22.001 4.08309 22.001H5.33311C6.48397 22.001 7.41648 21.0685 7.41648 19.9177V14.9176C7.41648 13.7667 6.48397 12.8342 5.33311 12.8342Z"/>
</svg>