<svg xmlns="http://www.w3.org/2000/svg" width="24" height="24" viewBox="0 0 24 24" fill="currentColor">
<path fill-rule="evenodd" clip-rule="evenodd" d="M13.3784 2.03294C13.7724 2.14186 14.0453 2.50038 14.0453 2.90916V9.27275H17.4543C17.7773 9.27275 18.076 9.4441 18.239 9.72288C18.4021 10.0017 18.405 10.346 18.2467 10.6275L12.1103 21.5365C11.9077 21.8968 11.4875 22.075 11.0876 21.9702C10.6878 21.8655 10.4089 21.5042 10.4089 21.0908V14.8283H6.54531C6.21796 14.8283 5.91589 14.6523 5.75446 14.3675C5.59303 14.0827 5.59717 13.7331 5.76531 13.4522L12.3562 2.44223C12.5661 2.09149 12.9844 1.92402 13.3784 2.03294Z"/>
</svg>