<svg xmlns="http://www.w3.org/2000/svg" width="24" height="24" viewBox="0 0 24 24" fill="currentColor">
<path fill-rule="evenodd" clip-rule="evenodd" d="M20 8V13.2227C19.5257 13.0891 19.0258 13.0166 18.5088 13.0166C15.476 13.0166 13.0177 15.4751 13.0176 18.5078C13.0176 19.8342 13.4876 21.0509 14.2705 22H6C5.46957 22 4.96101 21.7891 4.58594 21.4141C4.21086 21.039 4 20.5304 4 20V4C4 3.46957 4.21086 2.96101 4.58594 2.58594C4.96101 2.21086 5.46957 2 6 2H14L20 8ZM9 16C8.44772 16 8 16.4477 8 17C8 17.5523 8.44772 18 9 18H12C12.5523 18 13 17.5523 13 17C13 16.4477 12.5523 16 12 16H9ZM9 12C8.44772 12 8 12.4477 8 13C8 13.5523 8.44772 14 9 14H15C15.5523 14 16 13.5523 16 13C16 12.4477 15.5523 12 15 12H9ZM14 6.99902C14 7.55131 14.4477 7.99902 15 7.99902H18L14 4V6.99902Z"/>
<path d="M16.5432 23.027C17.1919 23.6757 17.9731 24 18.8868 24C19.8005 24 20.5817 23.6757 21.2305 23.027C21.8792 22.3783 22.2035 21.597 22.2035 20.6833V18.2832C22.2035 18.0453 22.123 17.8458 21.962 17.6848C21.801 17.5238 21.6015 17.4433 21.3636 17.4433C21.1256 17.4433 20.9262 17.5238 20.7652 17.6848C20.6042 17.8458 20.5237 18.0453 20.5237 18.2832V20.6833C20.5237 21.137 20.3643 21.5241 20.0455 21.8444C19.7267 22.1647 19.3405 22.3248 18.8868 22.3248C18.4332 22.3248 18.0462 22.1647 17.7258 21.8444C17.4054 21.5241 17.2453 21.137 17.2453 20.6833V17.076C17.2453 16.9691 17.2853 16.8756 17.3655 16.7954C17.4457 16.7153 17.5392 16.6752 17.6461 16.6752C17.7529 16.6752 17.8465 16.7153 17.9266 16.7954C18.0068 16.8756 18.0469 16.9691 18.0469 17.076V19.8434C18.0469 20.0813 18.1277 20.2808 18.2894 20.4418C18.451 20.6028 18.6502 20.6833 18.8868 20.6833C19.1234 20.6833 19.3217 20.6033 19.4818 20.4432C19.642 20.2831 19.7221 20.0848 19.7221 19.8482V17.076C19.7221 16.4948 19.5211 16.0036 19.1192 15.6022C18.7174 15.2007 18.226 15 17.6451 15C17.064 15 16.573 15.2007 16.1719 15.6022C15.7707 16.0036 15.5701 16.4948 15.5701 17.076V20.6833C15.5701 21.597 15.8945 22.3783 16.5432 23.027Z"/>
</svg>