<svg xmlns="http://www.w3.org/2000/svg" width="24" height="24" viewBox="0 0 24 24" fill="currentColor">
<path fill-rule="evenodd" clip-rule="evenodd" d="M18.8005 4.68434C16.9664 2.98243 14.5475 2.00013 12.001 2C6.48691 2 2.00049 6.48642 2.00049 12.0005C2.00076 17.5143 6.48707 22 12.001 22C12.1594 22 12.318 21.9948 12.4757 21.9873C13.0271 21.9611 13.4527 21.4938 13.427 20.9434C13.4013 20.3956 12.9174 19.9674 12.3831 19.9931C12.2555 19.9993 12.1292 20.0018 12.001 20.0019C7.5884 20.0019 3.9989 16.413 3.99864 12.0005C3.99864 7.58772 7.58844 3.99807 12.002 3.99717C14.0084 3.99733 15.9154 4.7579 17.3726 6.07817L17.5334 6.2234L17.5968 6.27896L17.5373 6.33939L17.3843 6.4934L16.2614 7.61528C16.0153 7.86134 16.1888 8.28393 16.5382 8.28393H20.4127C20.7662 8.28381 21.0611 8.03329 21.1291 7.70008L21.1437 7.5529V3.67844C21.1437 3.33053 20.7207 3.15507 20.4741 3.40163L19.0578 4.81885L19.0013 4.87343L18.9448 4.82177L18.8005 4.68434ZM17.509 19.8059C17.5088 19.2549 17.061 18.8073 16.51 18.8069C15.9587 18.8071 15.5101 19.2548 15.5099 19.8059C15.5101 20.3571 15.9588 20.8048 16.51 20.805C17.0609 20.8046 17.5088 20.3571 17.509 19.8059ZM20.7889 16.5007C20.7888 15.9493 20.3412 15.5017 19.7899 15.5016C19.2386 15.5019 18.7909 15.9495 18.7908 16.5007C18.791 17.0518 19.2387 17.4995 19.7899 17.4998C20.3411 17.4997 20.7887 17.052 20.7889 16.5007ZM22.0005 12.0005C22.0005 11.449 21.5529 11.0014 21.0014 11.0014C20.4499 11.0015 20.0023 11.449 20.0023 12.0005C20.0026 12.5518 20.4501 12.9985 21.0014 12.9986C21.5527 12.9986 22.0002 12.5518 22.0005 12.0005Z"/>
<path fill-rule="evenodd" clip-rule="evenodd" d="M16.1387 6.46387C14.985 5.60001 13.5522 5.08887 12 5.08887C8.18285 5.08887 5.08795 8.18287 5.08789 12C5.08789 15.8172 8.18282 18.9121 12 18.9121C15.8172 18.9121 18.9121 15.8172 18.9121 12C18.9121 10.9966 18.6961 10.044 18.3115 9.18359H16.5381C15.3835 9.18325 14.8145 7.78886 15.625 6.97852L16.1387 6.46387ZM11.002 8.14258C11.002 7.59106 11.4495 7.14356 12.001 7.14355C12.5523 7.14383 12.999 7.59124 12.999 8.14258V11.4189L13.041 11.4434L15.4922 12.8428L15.582 12.8994C15.994 13.1938 16.125 13.7604 15.8691 14.209L15.7939 14.3232C15.6008 14.5742 15.3041 14.7137 15 14.7139C14.8314 14.7138 14.6609 14.6716 14.5059 14.583L11.5049 12.8672C11.1932 12.6885 11.0021 12.3579 11.002 12V8.14258Z"/>
</svg>