<svg xmlns="http://www.w3.org/2000/svg" width="24" height="24" viewBox="0 0 24 24" fill="none">
<path d="M1 17.4084V17.4094C1.01318 17.8982 1.01724 18.3897 1.09968 18.8755C1.18705 19.3894 1.31193 19.8905 1.55019 20.3569C1.8723 20.9882 2.31467 21.5213 2.87307 21.9568C3.27399 22.2695 3.71195 22.5177 4.19677 22.6743C4.90371 22.9024 5.63302 22.9898 6.37299 22.994C6.83466 22.997 7.29603 23.0085 7.75787 23.0066C11.1118 22.9925 14.4659 23.0308 17.8199 22.9859C18.265 22.9798 18.7028 22.9256 19.1396 22.8457C19.9768 22.6924 20.7167 22.3352 21.3498 21.7704C22.0875 21.1124 22.5853 20.307 22.81 19.3351C22.9571 18.6997 22.9939 18.0552 23.0001 17.4083V17.2793C23.0001 17.2293 22.9811 6.28878 22.9794 6.14417C22.9744 5.74694 22.9452 5.35269 22.8707 4.96183C22.7801 4.48553 22.6522 4.02142 22.4241 3.59052C22.1833 3.13527 21.8816 2.72592 21.5085 2.36821C20.9369 1.82017 20.2774 1.4326 19.5096 1.22759C18.8161 1.04246 18.1086 1.00148 17.3959 1.00212C17.3959 1.00212 17.3921 0.994719 17.3919 0.991211H6.60483C6.60462 0.99489 6.60449 0.99857 6.60423 1.00212C6.19977 1.00952 5.7947 1.00648 5.39229 1.05637C4.95145 1.11117 4.51485 1.1937 4.0976 1.3478C3.44037 1.5909 2.86935 1.96952 2.38158 2.475C1.82896 3.04769 1.43942 3.71001 1.23274 4.48125C1.04834 5.16937 1.00821 5.87118 1.00723 6.57795" fill="currentColor"/>
<path d="M12.0998 19.5679C12.0542 19.5679 12.0106 19.5663 11.9774 19.5647C11.9511 19.567 11.9239 19.5679 11.8967 19.5679C10.9368 19.5679 10.295 19.1141 9.72857 18.7134C9.32261 18.4267 8.93974 18.1559 8.49121 18.0813C8.27092 18.0448 8.05179 18.0263 7.84006 18.0263C7.45857 18.0263 7.15708 18.0854 6.93696 18.1285C6.80151 18.1549 6.68471 18.1776 6.59444 18.1776C6.49989 18.1776 6.38502 18.1566 6.33714 17.9931C6.2992 17.8642 6.27199 17.7393 6.24572 17.619C6.18 17.3183 6.13234 17.1348 6.01978 17.1174C4.81583 16.9317 4.10449 16.658 3.96279 16.3266C3.94795 16.2918 3.93965 16.2568 3.93781 16.2221C3.93229 16.1233 4.00202 16.0367 4.0994 16.0206C5.0555 15.8631 5.90564 15.3578 6.62631 14.5181C7.18458 13.868 7.45874 13.2469 7.48817 13.1783C7.48945 13.1752 7.49095 13.172 7.49249 13.169C7.63141 12.8872 7.65904 12.6436 7.57489 12.4453C7.41976 12.0795 6.90598 11.9165 6.56607 11.8086C6.48154 11.7819 6.40158 11.7565 6.33787 11.7313C6.03655 11.6122 5.541 11.3608 5.60702 11.0137C5.6551 10.7606 5.98988 10.5843 6.26043 10.5843C6.33556 10.5843 6.40213 10.5975 6.45818 10.6238C6.7639 10.767 7.03895 10.8396 7.2755 10.8396C7.56967 10.8396 7.71175 10.7276 7.74611 10.6958C7.73764 10.5389 7.72728 10.373 7.71727 10.216C7.71727 10.2159 7.71706 10.214 7.71706 10.214C7.64801 9.11553 7.56188 7.74853 7.91155 6.96463C8.9581 4.61812 11.1775 4.43565 11.8326 4.43565C11.8501 4.43565 12.1182 4.433 12.1182 4.433C12.1303 4.43279 12.1434 4.43262 12.157 4.43262C12.8139 4.43262 15.0379 4.6153 16.0851 6.96321C16.4348 7.74763 16.3486 9.11578 16.2793 10.2154L16.2761 10.268C16.2666 10.4173 16.2578 10.5586 16.2504 10.6956C16.2828 10.7254 16.4128 10.8281 16.6773 10.8385C16.9028 10.8298 17.1619 10.7576 17.4473 10.624C17.5355 10.5825 17.6332 10.5739 17.6995 10.5739C17.7997 10.5739 17.9017 10.5935 17.9867 10.6289L17.9913 10.6307C18.2334 10.7166 18.392 10.8884 18.3954 11.0689C18.3985 11.2371 18.2735 11.4885 17.6586 11.7313C17.5956 11.7563 17.5153 11.7818 17.4304 11.8087C17.0902 11.9167 16.5768 12.0796 16.4217 12.4452C16.3374 12.6435 16.3652 12.887 16.5041 13.1688C16.5056 13.1718 16.507 13.175 16.5085 13.1782C16.5513 13.2785 17.5868 15.6397 19.8972 16.0204C19.9946 16.0366 20.0644 16.1233 20.0589 16.2219C20.0568 16.2573 20.0483 16.2928 20.0333 16.3274C19.8926 16.6569 19.1813 16.9302 17.977 17.1162C17.864 17.1336 17.8163 17.3163 17.7512 17.6154C17.7243 17.7389 17.6968 17.86 17.6594 17.9872C17.6244 18.1069 17.5464 18.1653 17.4212 18.1653H17.4024C17.3209 18.1653 17.2054 18.1505 17.0598 18.1221C16.8052 18.0725 16.5197 18.0264 16.1567 18.0264C15.945 18.0264 15.7259 18.045 15.5053 18.0815C15.0573 18.1561 14.6745 18.4264 14.2692 18.7128C13.7017 19.1141 13.0597 19.5679 12.0998 19.5679Z" fill="white"/>
</svg>