<svg xmlns="http://www.w3.org/2000/svg" width="24" height="24" viewBox="0 0 24 24" fill="none">
<path d="M20.3171 4.36983C18.7871 3.66783 17.1471 3.15083 15.4321 2.85483C15.4011 2.84883 15.3701 2.86383 15.3531 2.89183C15.1421 3.26683 14.9081 3.75683 14.7451 4.14083C12.9001 3.86483 11.0651 3.86483 9.25809 4.14083C9.09509 3.74783 8.85209 3.26683 8.64109 2.89183C8.62409 2.86383 8.59309 2.84983 8.56209 2.85483C6.84809 3.14983 5.20809 3.66683 3.67709 4.36983C3.66409 4.37483 3.65209 4.38483 3.64509 4.39683C0.534087 9.04483 -0.318913 13.5788 0.0990873 18.0568C0.101087 18.0788 0.113087 18.0998 0.130087 18.1128C2.18309 19.6208 4.17109 20.5358 6.12309 21.1418C6.15409 21.1518 6.18709 21.1398 6.20709 21.1138C6.66909 20.4838 7.08009 19.8188 7.43309 19.1198C7.45409 19.0788 7.43409 19.0298 7.39109 19.0138C6.73809 18.7658 6.11709 18.4638 5.51909 18.1218C5.47209 18.0938 5.46809 18.0268 5.51109 17.9938C5.63709 17.8998 5.76309 17.8018 5.88309 17.7028C5.90509 17.6848 5.93509 17.6808 5.96109 17.6928C9.88909 19.4858 14.1411 19.4858 18.0221 17.6928C18.0481 17.6808 18.0781 17.6838 18.1011 17.7028C18.2211 17.8018 18.3471 17.9008 18.4741 17.9948C18.5181 18.0268 18.5151 18.0948 18.4671 18.1228C17.8691 18.4718 17.2481 18.7678 16.5941 19.0138C16.5511 19.0298 16.5331 19.0798 16.5531 19.1208C16.9131 19.8188 17.3251 20.4838 17.7781 21.1138C17.7971 21.1408 17.8311 21.1518 17.8621 21.1428C19.8231 20.5358 21.8121 19.6208 23.8641 18.1138C23.8821 18.1008 23.8931 18.0808 23.8951 18.0588C24.3951 12.8818 23.0571 8.38483 20.3471 4.39883C20.3421 4.38483 20.3301 4.37483 20.3171 4.36983ZM8.02009 15.3308C6.83709 15.3308 5.86309 14.2448 5.86309 12.9118C5.86309 11.5788 6.81809 10.4928 8.02009 10.4928C9.23109 10.4928 10.1961 11.5878 10.1771 12.9118C10.1771 14.2458 9.22109 15.3308 8.02009 15.3308ZM15.9951 15.3308C14.8131 15.3308 13.8381 14.2448 13.8381 12.9118C13.8381 11.5788 14.7931 10.4928 15.9951 10.4928C17.2061 10.4928 18.1711 11.5878 18.1521 12.9118C18.1521 14.2458 17.2061 15.3308 15.9951 15.3308Z" fill="#5865F2"/>
<path d="M15.9951 15.3308C14.8131 15.3308 13.8381 14.2448 13.8381 12.9118C13.8381 11.5788 14.7931 10.4928 15.9951 10.4928C17.2061 10.4928 18.1711 11.5878 18.1521 12.9118C18.1521 14.2458 17.2061 15.3308 15.9951 15.3308Z" fill="white"/>
<path d="M8.02009 15.3308C6.83709 15.3308 5.86309 14.2448 5.86309 12.9118C5.86309 11.5788 6.81809 10.4928 8.02009 10.4928C9.23109 10.4928 10.1961 11.5878 10.1771 12.9118C10.1771 14.2458 9.22109 15.3308 8.02009 15.3308Z" fill="white"/>
</svg>