<svg xmlns="http://www.w3.org/2000/svg" width="24" height="24" viewBox="0 0 24 24" fill="none">
<path fill-rule="evenodd" clip-rule="evenodd" d="M12 22C17.5228 22 22 17.5228 22 12C22 6.47715 17.5228 2 12 2C6.47715 2 2 6.47715 2 12L2.00023 12.0692C2.02778 16.1344 4.48227 19.6211 7.9859 21.159C7.95778 20.4608 7.9809 19.6225 8.15996 18.8627C8.35223 18.0509 9.44667 13.4137 9.44667 13.4137C9.44667 13.4137 9.12722 12.7752 9.12722 11.8315C9.12722 10.3496 9.98612 9.24281 11.0558 9.24281C11.9654 9.24281 12.4048 9.92601 12.4048 10.7441C12.4048 11.3269 12.1679 12.0939 11.9184 12.9016C11.7765 13.361 11.6305 13.8337 11.5217 14.293C11.2712 15.3538 12.0536 16.219 13.1001 16.219C14.9947 16.219 16.2708 13.7855 16.2708 10.9022C16.2708 8.71055 14.7947 7.07009 12.1098 7.07009C9.07636 7.07009 7.18661 9.33226 7.18661 11.8591C7.18661 12.7304 7.44349 13.3447 7.84583 13.8205C8.03082 14.039 8.05653 14.1269 7.98957 14.3778C7.96472 14.4732 7.92315 14.6381 7.88253 14.7993C7.84477 14.9491 7.8078 15.0958 7.78583 15.1803C7.71926 15.4336 7.51403 15.5242 7.28513 15.4306C5.88795 14.8603 5.23725 13.3302 5.23725 11.6102C5.23725 8.76953 7.63302 5.36331 12.3842 5.36331C16.2022 5.36331 18.715 8.1261 18.715 11.0918C18.715 15.0146 16.5341 17.9453 13.3193 17.9453C12.2397 17.9453 11.2242 17.3617 10.8763 16.6988C10.8763 16.6988 10.2957 19.0029 10.1728 19.4478C9.96073 20.2188 9.54573 20.9894 9.16628 21.59C9.59687 21.7171 10.0394 21.8166 10.4918 21.8857C10.9372 21.9537 11.3871 21.9915 11.8385 21.9987C11.8922 21.9996 11.9461 22 12 22Z" fill="white"/>
<path d="M2 12C2 12.0231 2.00008 12.0461 2.00023 12.0692C2.02778 16.1344 4.48227 19.6211 7.9859 21.159C7.95778 20.4608 7.9809 19.6225 8.15996 18.8627C8.35223 18.0509 9.44667 13.4137 9.44667 13.4137C9.44667 13.4137 9.12722 12.7752 9.12722 11.8315C9.12722 10.3496 9.98612 9.24281 11.0558 9.24281C11.9654 9.24281 12.4048 9.92601 12.4048 10.7441C12.4048 11.6585 11.8217 13.0262 11.5217 14.293C11.2712 15.3538 12.0536 16.219 13.1001 16.219C14.9947 16.219 16.2708 13.7855 16.2708 10.9022C16.2708 8.71055 14.7947 7.07009 12.1098 7.07009C9.07636 7.07009 7.18661 9.33226 7.18661 11.8591C7.18661 12.7304 7.44349 13.3447 7.84583 13.8205C8.03082 14.039 8.05653 14.1269 7.98957 14.3778C7.94161 14.5618 7.83145 15.0048 7.78583 15.1803C7.71926 15.4336 7.51403 15.5242 7.28513 15.4306C5.88795 14.8603 5.23725 13.3302 5.23725 11.6102C5.23725 8.76953 7.63302 5.36331 12.3842 5.36331C16.2022 5.36331 18.715 8.1261 18.715 11.0918C18.715 15.0146 16.5341 17.9453 13.3193 17.9453C12.2397 17.9453 11.2242 17.3617 10.8763 16.6988C10.8763 16.6988 10.2957 19.0029 10.1728 19.4478C9.96073 20.2188 9.54573 20.9894 9.16628 21.59C10.0348 21.8468 10.9335 21.9842 11.8385 21.9987C11.8922 21.9996 11.9461 22 12 22C17.5228 22 22 17.5228 22 12C22 6.47715 17.5228 2 12 2C6.47715 2 2 6.47715 2 12Z" fill="#CB1F27"/>
<path d="M11.8385 21.9987C6.41312 21.9128 2.03706 17.5063 2.00023 12.0692C2.02778 16.1344 4.48227 19.6211 7.9859 21.159C7.95778 20.4608 7.9809 19.6225 8.15996 18.8627C8.35223 18.0509 9.44667 13.4137 9.44667 13.4137C9.44667 13.4137 9.12722 12.7752 9.12722 11.8315C9.12722 10.3496 9.98612 9.24281 11.0558 9.24281C11.9654 9.24281 12.4048 9.92601 12.4048 10.7441C12.4048 11.3269 12.1679 12.0939 11.9184 12.9016C11.7765 13.361 11.6305 13.8337 11.5217 14.293C11.2712 15.3538 12.0536 16.219 13.1001 16.219C14.9947 16.219 16.2708 13.7855 16.2708 10.9022C16.2708 8.71055 14.7947 7.07009 12.1098 7.07009C9.07636 7.07009 7.18661 9.33226 7.18661 11.8591C7.18661 12.7304 7.44349 13.3447 7.84583 13.8205C8.03082 14.039 8.05653 14.1269 7.98957 14.3778C7.96472 14.4732 7.92315 14.6381 7.88253 14.7993C7.84477 14.9491 7.8078 15.0958 7.78583 15.1803C7.71926 15.4336 7.51403 15.5242 7.28513 15.4306C5.88795 14.8603 5.23725 13.3302 5.23725 11.6102C5.23725 8.76953 7.63302 5.36331 12.3842 5.36331C16.2022 5.36331 18.715 8.1261 18.715 11.0918C18.715 15.0146 16.5341 17.9453 13.3193 17.9453C12.2397 17.9453 11.2242 17.3617 10.8763 16.6988C10.8763 16.6988 10.2957 19.0029 10.1728 19.4478C9.96073 20.2188 9.54573 20.9894 9.16628 21.59C10.0348 21.8468 10.9335 21.9842 11.8385 21.9987Z" fill="white"/>
</svg>