<svg xmlns="http://www.w3.org/2000/svg" width="24" height="24" viewBox="0 0 24 24" fill="none">
<path d="M1 17.4084V17.4094C1.01318 17.8982 1.01724 18.3897 1.09968 18.8755C1.18705 19.3894 1.31193 19.8905 1.55019 20.3569C1.8723 20.9882 2.31467 21.5213 2.87307 21.9568C3.27399 22.2695 3.71195 22.5177 4.19677 22.6743C4.90371 22.9024 5.63302 22.9898 6.37299 22.994C6.83466 22.997 7.29603 23.0085 7.75787 23.0066C11.1118 22.9925 14.4659 23.0308 17.8199 22.9859C18.265 22.9798 18.7028 22.9256 19.1396 22.8457C19.9768 22.6924 20.7167 22.3352 21.3498 21.7704C22.0875 21.1124 22.5853 20.307 22.81 19.3351C22.9571 18.6997 22.9939 18.0552 23.0001 17.4083V17.2793C23.0001 17.2293 22.9811 6.28878 22.9794 6.14417C22.9744 5.74694 22.9452 5.35269 22.8707 4.96183C22.7801 4.48553 22.6522 4.02142 22.4241 3.59052C22.1833 3.13527 21.8816 2.72592 21.5085 2.36821C20.9369 1.82017 20.2774 1.4326 19.5096 1.22759C18.8161 1.04246 18.1086 1.00148 17.3959 1.00212C17.3959 1.00212 17.3921 0.994719 17.3919 0.991211H6.60483C6.60462 0.99489 6.60449 0.99857 6.60423 1.00212C6.19977 1.00952 5.7947 1.00648 5.39229 1.05637C4.95145 1.11117 4.51485 1.1937 4.0976 1.3478C3.44037 1.5909 2.86935 1.96952 2.38158 2.475C1.82896 3.04769 1.43942 3.71001 1.23274 4.48125C1.04834 5.16937 1.00821 5.87118 1.00723 6.57795" fill="#FFFC00"/>
<path d="M12.1571 4.62593C12.7756 4.62593 14.9051 4.79205 15.9087 7.04195C16.2391 7.78282 16.1544 9.12487 16.0865 10.203C16.0759 10.374 16.0653 10.5399 16.0568 10.6982L16.0532 10.7663L16.0986 10.817C16.117 10.8373 16.2888 11.0168 16.6708 11.0316L16.6834 11.0318C16.936 11.0222 17.2205 10.9437 17.5294 10.799C17.575 10.7777 17.6355 10.7673 17.6996 10.7673C17.7727 10.7673 17.8503 10.781 17.9143 10.808L17.9239 10.8118C18.086 10.8686 18.2005 10.9756 18.2022 11.0725C18.2032 11.1273 18.1622 11.3245 17.5879 11.5514C17.5318 11.5736 17.4579 11.5972 17.3723 11.6242C16.9985 11.7428 16.4339 11.9219 16.2438 12.3697C16.1368 12.622 16.1661 12.9197 16.3308 13.2544C16.3986 13.4126 17.4654 15.8156 19.866 16.2111C19.8656 16.2225 19.8626 16.235 19.8562 16.2496C19.8155 16.3455 19.5569 16.6766 17.9476 16.9249C17.6958 16.9635 17.6341 17.2458 17.5626 17.5739C17.5367 17.6914 17.5105 17.81 17.4743 17.9325C17.4633 17.9695 17.4613 17.9716 17.4216 17.9716C17.4161 17.9716 17.4097 17.9716 17.4027 17.9716C17.3313 17.9716 17.223 17.9568 17.0974 17.9321C16.8688 17.8876 16.5564 17.8329 16.157 17.8329C15.9341 17.8329 15.7045 17.8523 15.4741 17.8908C14.9816 17.9727 14.5811 18.2559 14.157 18.5558C13.5874 18.9583 12.9986 19.3747 12.1004 19.3747C12.0611 19.3747 12.0228 19.3734 11.9845 19.3715L11.9744 19.3711L11.9642 19.3718C11.9422 19.3738 11.92 19.3747 11.8973 19.3747C10.9992 19.3747 10.4102 18.9584 9.84084 18.5558C9.41661 18.2559 9.0159 17.9727 8.52352 17.8908C8.29335 17.8525 8.06352 17.8329 7.84075 17.8329C7.44146 17.8329 7.12868 17.894 6.90047 17.9387C6.77491 17.9632 6.66619 17.9843 6.59505 17.9843C6.53678 17.9843 6.53566 17.9808 6.52334 17.9387C6.48723 17.8162 6.46084 17.6948 6.43512 17.5774C6.36342 17.249 6.30169 16.9651 6.05 16.9265C4.44081 16.678 4.18215 16.3463 4.14133 16.2508C4.13496 16.2357 4.13209 16.2229 4.13145 16.2115C6.53199 15.8163 7.5986 13.4131 7.66658 13.2544C7.83159 12.9199 7.86086 12.6223 7.75352 12.3697C7.56348 11.9222 6.99891 11.7428 6.62542 11.6244C6.53956 11.5972 6.46563 11.5736 6.40945 11.5514C5.92447 11.3598 5.77529 11.1668 5.79745 11.0498C5.82316 10.9149 6.05701 10.7777 6.26109 10.7777C6.30695 10.7777 6.34716 10.7851 6.3769 10.799C6.70834 10.9544 7.01089 11.0332 7.27628 11.0332C7.69345 11.0332 7.87913 10.839 7.89906 10.8169L7.94428 10.7663L7.94065 10.6986C7.93222 10.5403 7.92182 10.3746 7.91087 10.2038C7.84315 9.12547 7.75844 7.78432 8.08876 7.04341C9.08859 4.80176 11.2077 4.62897 11.8333 4.62897C11.8487 4.62897 12.1207 4.62618 12.1207 4.62618C12.1318 4.6261 12.1442 4.62593 12.1571 4.62593ZM12.1571 4.23926C12.1429 4.23926 12.1288 4.23926 12.116 4.23943C12.0144 4.24046 11.8473 4.24208 11.8322 4.24225C11.4658 4.24225 10.7325 4.29402 9.94489 4.64167C9.49456 4.84031 9.08949 5.1089 8.74098 5.44C8.32548 5.8345 7.98698 6.32089 7.73508 6.88588C7.36616 7.71313 7.45374 9.10652 7.52407 10.2263C7.5316 10.3462 7.53977 10.4732 7.547 10.5952C7.49288 10.62 7.40514 10.6463 7.2758 10.6463C7.06771 10.6463 6.82026 10.5797 6.5405 10.4487C6.45818 10.4103 6.36423 10.3909 6.26057 10.3909C6.09402 10.3909 5.91844 10.44 5.76613 10.5295C5.57451 10.642 5.4507 10.8011 5.41707 10.9774C5.39491 11.094 5.39598 11.3245 5.65203 11.5583C5.79287 11.687 5.99977 11.8056 6.26682 11.9112C6.3369 11.9388 6.42007 11.9651 6.50815 11.9931C6.81384 12.0902 7.27649 12.237 7.39714 12.521C7.45827 12.6649 7.43196 12.8544 7.31914 13.0833C7.31619 13.0896 7.31324 13.0957 7.31054 13.1021C7.28235 13.168 7.01932 13.7638 6.47979 14.3921C6.17321 14.7494 5.83553 15.048 5.47666 15.2799C5.03865 15.563 4.56471 15.7481 4.06813 15.8299C3.87313 15.8619 3.73387 16.0356 3.74474 16.2331C3.74807 16.29 3.76142 16.3467 3.78457 16.4016C3.78439 16.4013 3.78474 16.4019 3.78457 16.4016C3.86341 16.586 4.04678 16.7437 4.34399 16.8819C4.70717 17.0506 5.25034 17.1925 5.95827 17.3035C5.99404 17.3715 6.03117 17.5425 6.05688 17.6595C6.08379 17.784 6.11186 17.9119 6.15186 18.0478C6.19503 18.195 6.30699 18.3709 6.59462 18.3709C6.70363 18.3709 6.82898 18.3463 6.97414 18.3182C7.18673 18.2765 7.47744 18.2196 7.84028 18.2196C8.04144 18.2196 8.24992 18.2373 8.45977 18.2722C8.86428 18.3395 9.21301 18.5858 9.61649 18.8711C10.2071 19.2886 10.8755 19.7611 11.8969 19.7611C11.9247 19.7611 11.9527 19.7602 11.9803 19.7583C12.014 19.7599 12.0559 19.7611 12.1 19.7611C13.1217 19.7611 13.79 19.2884 14.3799 18.8713C14.7835 18.5863 15.1328 18.3395 15.5371 18.2722C15.7469 18.2373 15.9553 18.2196 16.1566 18.2196C16.5032 18.2196 16.7777 18.2638 17.0227 18.3116C17.1827 18.343 17.3069 18.3582 17.4023 18.3582L17.4116 18.3584H17.4213C17.6317 18.3584 17.7862 18.2429 17.8452 18.0408C17.8844 17.9078 17.9124 17.7829 17.94 17.6564C17.964 17.5467 18.0025 17.3708 18.0382 17.3021C18.7466 17.1909 19.2896 17.0493 19.6528 16.8806C19.9493 16.7431 20.1319 16.5866 20.2112 16.4029C20.235 16.3478 20.2489 16.2908 20.2521 16.2327C20.2632 16.0356 20.1237 15.8615 19.9286 15.8295C17.7217 15.4657 16.7274 13.1981 16.6863 13.1017C16.6837 13.0954 16.6807 13.0891 16.6776 13.083C16.5647 12.8539 16.5387 12.6647 16.5999 12.5205C16.7203 12.2368 17.1826 12.09 17.4885 11.9929C17.5771 11.965 17.6605 11.9385 17.7301 11.911C18.0312 11.7921 18.2464 11.663 18.3884 11.5165C18.558 11.3418 18.5911 11.1745 18.589 11.0649C18.5838 10.7999 18.3813 10.5645 18.059 10.4492C17.9502 10.4042 17.8261 10.3804 17.6997 10.3804C17.6136 10.3804 17.4862 10.3922 17.3656 10.4485C17.1074 10.5693 16.8762 10.6354 16.6776 10.6448C16.572 10.6395 16.498 10.6166 16.45 10.5947C16.456 10.4913 16.4627 10.3852 16.4696 10.2744L16.4725 10.227C16.5432 9.10656 16.6311 7.7121 16.262 6.88425C16.009 6.31726 15.6693 5.82962 15.2521 5.43426C14.9022 5.10295 14.4958 4.83441 14.0439 4.6359C13.2573 4.29081 12.5241 4.23926 12.1571 4.23926Z" fill="white"/>
<path fill-rule="evenodd" clip-rule="evenodd" d="M15.9087 7.04195C14.9051 4.79205 12.7756 4.62593 12.1571 4.62593L12.1207 4.62618C12.1207 4.62618 11.8487 4.62897 11.8333 4.62897C11.2077 4.62897 9.08859 4.80176 8.08876 7.04341C7.75885 7.78338 7.84319 9.12617 7.91087 10.2038C7.92182 10.3746 7.93222 10.5403 7.94065 10.6986L7.94428 10.7663L7.89906 10.8169C7.87913 10.839 7.69345 11.0332 7.27628 11.0332C7.01089 11.0332 6.70834 10.9544 6.3769 10.799C6.34716 10.7851 6.30695 10.7777 6.26109 10.7777C6.05701 10.7777 5.82316 10.9149 5.79745 11.0498C5.77529 11.1668 5.92447 11.3598 6.40945 11.5514C6.46563 11.5736 6.53956 11.5972 6.62542 11.6244C6.99891 11.7428 7.56348 11.9222 7.75352 12.3697C7.86086 12.6223 7.83159 12.9199 7.66658 13.2544C7.5986 13.4131 6.53199 15.8163 4.13145 16.2115C4.13209 16.2229 4.13496 16.2357 4.14133 16.2508C4.18215 16.3463 4.44081 16.678 6.05 16.9265C6.30169 16.9651 6.36342 17.249 6.43512 17.5774C6.4603 17.6923 6.48804 17.8189 6.52334 17.9387C6.53566 17.9808 6.53678 17.9843 6.59505 17.9843C6.66619 17.9843 6.77491 17.9632 6.90047 17.9387C7.12868 17.894 7.44146 17.8329 7.84075 17.8329C8.06352 17.8329 8.29335 17.8525 8.52352 17.8908C9.0159 17.9727 9.41661 18.2559 9.84084 18.5558C10.4102 18.9584 10.9992 19.3747 11.8973 19.3747C11.92 19.3747 11.9422 19.3738 11.9642 19.3718L11.9744 19.3711L11.9845 19.3715C12.0228 19.3734 12.0611 19.3747 12.1004 19.3747C12.9986 19.3747 13.5874 18.9583 14.157 18.5558C14.5811 18.2559 14.9816 17.9727 15.4741 17.8908C15.7045 17.8523 15.9341 17.8329 16.157 17.8329C16.5564 17.8329 16.8688 17.8876 17.0974 17.9321C17.223 17.9568 17.3313 17.9716 17.4027 17.9716H17.4216C17.4613 17.9716 17.4633 17.9695 17.4743 17.9325C17.5105 17.81 17.5367 17.6914 17.5626 17.5739C17.6341 17.2458 17.6958 16.9635 17.9476 16.9249C19.5569 16.6766 19.8155 16.3455 19.8562 16.2496C19.8626 16.235 19.8656 16.2225 19.866 16.2111C17.4654 15.8156 16.3986 13.4126 16.3308 13.2544C16.1661 12.9197 16.1368 12.622 16.2438 12.3697C16.4339 11.9219 16.9985 11.7428 17.3723 11.6242C17.4579 11.5972 17.5318 11.5736 17.5879 11.5514C18.1622 11.3245 18.2032 11.1273 18.2022 11.0725C18.2005 10.9756 18.086 10.8686 17.9239 10.8118L17.9143 10.808C17.8503 10.781 17.7727 10.7673 17.6996 10.7673C17.6355 10.7673 17.575 10.7777 17.5294 10.799C17.2205 10.9437 16.936 11.0222 16.6834 11.0318L16.6708 11.0316C16.2888 11.0168 16.117 10.8373 16.0986 10.817L16.0532 10.7663L16.0568 10.6982C16.0641 10.5619 16.073 10.42 16.0821 10.274C16.0835 10.2504 16.085 10.2267 16.0865 10.203C16.1544 9.12487 16.2391 7.78282 15.9087 7.04195Z" fill="white"/>
<path d="M12.1571 4.62593C12.7756 4.62593 14.9051 4.79205 15.9087 7.04195C16.2391 7.78282 16.1544 9.12487 16.0865 10.203C16.0759 10.374 16.0653 10.5399 16.0568 10.6982L16.0532 10.7663L16.0986 10.817C16.117 10.8373 16.2888 11.0168 16.6708 11.0316L16.677 11.032L16.6834 11.0318C16.936 11.0222 17.2205 10.9437 17.5294 10.799C17.575 10.7777 17.6355 10.7673 17.6996 10.7673C17.7727 10.7673 17.8503 10.781 17.9143 10.808L17.9239 10.8118C18.086 10.8686 18.2005 10.9756 18.2022 11.0725C18.2032 11.1273 18.1622 11.3245 17.5879 11.5514C17.5318 11.5736 17.4579 11.5972 17.3723 11.6242C16.9985 11.7428 16.4339 11.9219 16.2438 12.3697C16.1368 12.622 16.1661 12.9197 16.3308 13.2544C16.3986 13.4126 17.4654 15.8156 19.866 16.2111C19.8656 16.2225 19.8626 16.235 19.8562 16.2496C19.8155 16.3455 19.5569 16.6766 17.9476 16.9249C17.6958 16.9635 17.6341 17.2458 17.5626 17.5739C17.5367 17.6914 17.5105 17.81 17.4743 17.9325C17.4633 17.9695 17.4613 17.9716 17.4216 17.9716C17.4161 17.9716 17.4097 17.9716 17.4027 17.9716C17.3313 17.9716 17.223 17.9568 17.0974 17.9321C16.8688 17.8876 16.5564 17.8329 16.157 17.8329C15.9341 17.8329 15.7045 17.8523 15.4741 17.8908C14.9816 17.9727 14.5811 18.2559 14.157 18.5558C13.5874 18.9583 12.9986 19.3747 12.1004 19.3747C12.0611 19.3747 12.0228 19.3734 11.9845 19.3715L11.9744 19.3711L11.9642 19.3718C11.9422 19.3738 11.92 19.3747 11.8973 19.3747C10.9992 19.3747 10.4102 18.9584 9.84084 18.5558C9.41661 18.2559 9.0159 17.9727 8.52352 17.8908C8.29335 17.8525 8.06352 17.8329 7.84075 17.8329C7.44146 17.8329 7.12868 17.894 6.90047 17.9387C6.77491 17.9632 6.66619 17.9843 6.59505 17.9843C6.53678 17.9843 6.53566 17.9808 6.52334 17.9387C6.48723 17.8162 6.46084 17.6948 6.43512 17.5774C6.36342 17.249 6.30169 16.9651 6.05 16.9265C4.44081 16.678 4.18215 16.3463 4.14133 16.2508C4.13496 16.2357 4.13209 16.2229 4.13145 16.2115C6.53199 15.8163 7.5986 13.4131 7.66658 13.2544C7.83159 12.9199 7.86086 12.6223 7.75352 12.3697C7.56348 11.9222 6.99891 11.7428 6.62542 11.6244C6.53956 11.5972 6.46563 11.5736 6.40945 11.5514C5.92447 11.3598 5.77529 11.1668 5.79745 11.0498C5.82316 10.9149 6.05701 10.7777 6.26109 10.7777C6.30695 10.7777 6.34716 10.7851 6.3769 10.799C6.70834 10.9544 7.01089 11.0332 7.27628 11.0332C7.69345 11.0332 7.87913 10.839 7.89906 10.8169L7.94428 10.7663L7.94065 10.6986C7.93222 10.5403 7.92182 10.3746 7.91087 10.2038C7.84315 9.12547 7.75844 7.78432 8.08876 7.04341C9.08859 4.80176 11.2077 4.62897 11.8333 4.62897C11.8487 4.62897 12.1207 4.62618 12.1207 4.62618C12.1318 4.6261 12.1442 4.62593 12.1571 4.62593ZM12.1571 4.23926C12.1429 4.23926 12.1288 4.23926 12.116 4.23943C12.0144 4.24046 11.8473 4.24208 11.8322 4.24225C11.4658 4.24225 10.7325 4.29402 9.94489 4.64167C9.49456 4.84031 9.08949 5.1089 8.74098 5.44C8.32548 5.8345 7.98698 6.32089 7.73508 6.88588C7.36616 7.71313 7.45374 9.10652 7.52407 10.2263L7.52433 10.228C7.53186 10.3479 7.53977 10.4732 7.547 10.5952C7.49288 10.62 7.40514 10.6463 7.2758 10.6463C7.06771 10.6463 6.82026 10.5797 6.5405 10.4487C6.45818 10.4103 6.36423 10.3909 6.26057 10.3909C6.09402 10.3909 5.91844 10.44 5.76613 10.5295C5.57451 10.642 5.4507 10.8011 5.41707 10.9774C5.39491 11.094 5.39598 11.3245 5.65203 11.5583C5.79287 11.687 5.99977 11.8056 6.26682 11.9112C6.3369 11.9388 6.42007 11.9651 6.50815 11.9931C6.81384 12.0902 7.27649 12.237 7.39714 12.521C7.45827 12.6649 7.43196 12.8544 7.31914 13.0833C7.31619 13.0896 7.31324 13.0957 7.31054 13.1021C7.28235 13.168 7.01932 13.7638 6.47979 14.3921C6.17321 14.7494 5.83553 15.048 5.47666 15.2799C5.03865 15.563 4.56471 15.7481 4.06813 15.8299C3.87313 15.8619 3.73387 16.0356 3.74474 16.2331C3.74807 16.29 3.76142 16.3467 3.78457 16.4016C3.78474 16.4019 3.78495 16.4023 3.78512 16.4026C3.86397 16.587 4.04678 16.7437 4.34399 16.8819C4.70717 17.0506 5.25034 17.1925 5.95827 17.3035C5.99404 17.3715 6.03117 17.5425 6.05688 17.6595C6.08379 17.784 6.11186 17.9119 6.15186 18.0478C6.19503 18.195 6.30699 18.3709 6.59462 18.3709C6.70363 18.3709 6.82898 18.3463 6.97414 18.3182C7.18673 18.2765 7.47744 18.2196 7.84028 18.2196C8.04144 18.2196 8.24992 18.2373 8.45977 18.2722C8.86428 18.3395 9.21301 18.5858 9.61649 18.8711C10.2071 19.2886 10.8755 19.7611 11.8969 19.7611C11.9247 19.7611 11.9527 19.7602 11.9803 19.7583C12.014 19.7599 12.0559 19.7611 12.1 19.7611C13.1217 19.7611 13.79 19.2884 14.3799 18.8713L14.3809 18.8704C14.7844 18.5855 15.1328 18.3395 15.5371 18.2722C15.7469 18.2373 15.9553 18.2196 16.1566 18.2196C16.5032 18.2196 16.7777 18.2638 17.0227 18.3116C17.1827 18.343 17.3069 18.3582 17.4023 18.3582L17.4116 18.3584H17.4213C17.6317 18.3584 17.7862 18.2429 17.8452 18.0408C17.8844 17.9078 17.9124 17.7829 17.94 17.6564C17.964 17.5467 18.0025 17.3708 18.0382 17.3021C18.7466 17.1909 19.2896 17.0493 19.6528 16.8806C19.9493 16.7431 20.1319 16.5866 20.2112 16.4029C20.235 16.3478 20.2489 16.2908 20.2521 16.2327C20.2632 16.0356 20.1237 15.8615 19.9286 15.8295C17.7217 15.4657 16.7274 13.1981 16.6863 13.1017C16.6837 13.0954 16.6807 13.0891 16.6776 13.083C16.5647 12.8539 16.5387 12.6647 16.5999 12.5205C16.7203 12.2368 17.1826 12.09 17.4885 11.9929C17.5771 11.965 17.6605 11.9385 17.7301 11.911C18.0312 11.7921 18.2464 11.663 18.3884 11.5165C18.558 11.3418 18.5911 11.1745 18.589 11.0649C18.5838 10.7999 18.3813 10.5645 18.059 10.4492C17.9502 10.4042 17.8261 10.3804 17.6997 10.3804C17.6136 10.3804 17.4862 10.3922 17.3656 10.4485C17.1074 10.5693 16.8762 10.6354 16.6776 10.6448C16.572 10.6395 16.498 10.6166 16.45 10.5947C16.456 10.4913 16.4627 10.3852 16.4696 10.2744L16.4725 10.227C16.5432 9.10656 16.6311 7.7121 16.262 6.88425C16.009 6.31726 15.6693 5.82962 15.2521 5.43426C14.9022 5.10295 14.4958 4.83441 14.0439 4.6359C13.2573 4.29081 12.5241 4.23926 12.1571 4.23926Z" fill="#020202"/>
</svg>