<svg xmlns="http://www.w3.org/2000/svg" width="24" height="24" viewBox="0 0 24 24" fill="none">
<path d="M6.20146 14.6386C6.20146 15.7952 5.25813 16.74 4.10128 16.74C2.94444 16.74 2 15.7952 2 14.6386C2 13.4819 2.94476 12.5371 4.10144 12.5371H6.20162L6.20146 14.6386ZM7.26015 14.6386C7.26015 13.4819 8.20491 12.5371 9.36159 12.5371C10.5183 12.5371 11.463 13.4817 11.463 14.6386V19.8989C11.463 21.0555 10.5184 22.0003 9.36159 22.0003C8.20491 22.0003 7.26015 21.0555 7.26015 19.8989V14.6386Z" fill="#DE1C59"/>
<path d="M9.36159 6.20146C8.20491 6.20146 7.26015 5.25813 7.26015 4.10128C7.26015 2.94444 8.20491 2 9.36159 2C10.5183 2 11.463 2.94476 11.463 4.10144V6.20162L9.36159 6.20146ZM9.36159 7.26015C10.5183 7.26015 11.463 8.20491 11.463 9.36159C11.463 10.5183 10.5184 11.463 9.36159 11.463H4.10128C2.9446 11.463 2 10.5184 2 9.36159C2 8.20491 2.94476 7.26015 4.10144 7.26015H9.36159Z" fill="#35C5F0"/>
<path d="M17.7982 9.36159C17.7982 8.20491 18.7415 7.26015 19.8984 7.26015C21.0552 7.26015 21.9998 8.20491 21.9998 9.36159C21.9998 10.5183 21.0551 11.463 19.8984 11.463H17.7982V9.36159ZM16.7395 9.36159C16.7395 10.5183 15.7947 11.463 14.6381 11.463C13.4814 11.463 12.5366 10.5184 12.5366 9.36159V4.10128C12.5366 2.9446 13.4812 2 14.6381 2C15.7947 2 16.7395 2.94476 16.7395 4.10144V9.36159Z" fill="#2EB57D"/>
<path d="M14.6381 17.7987C15.7947 17.7987 16.7395 18.742 16.7395 19.8989C16.7395 21.0557 15.7947 22.0003 14.6381 22.0003C13.4814 22.0003 12.5366 21.0555 12.5366 19.8989V17.7987H14.6381ZM14.6381 16.74C13.4814 16.74 12.5366 15.7952 12.5366 14.6386C12.5366 13.4819 13.4812 12.5371 14.6381 12.5371H19.8984C21.0551 12.5371 21.9998 13.4817 21.9998 14.6386C21.9998 15.7952 21.0551 16.74 19.8984 16.74H14.6381Z" fill="#EBB02E"/>
</svg>