<svg xmlns="http://www.w3.org/2000/svg" width="24" height="24" viewBox="0 0 24 24" fill="none">
<path d="M15.8502 8.14C16.2402 8.14 16.6202 8.17 16.9902 8.22C16.3102 5.25 13.1902 3 9.44023 3C5.19023 3 1.74023 5.88 1.74023 9.43C1.74023 11.48 2.89023 13.29 4.68023 14.47L3.67023 16.5L6.43023 15.31C7.02023 15.52 7.64023 15.69 8.30023 15.78C8.21023 15.39 8.16023 14.99 8.16023 14.57C8.15023 11.03 11.6002 8.14 15.8502 8.14ZM12.0002 5.89C12.1263 5.89 12.2511 5.91483 12.3676 5.96308C12.4841 6.01132 12.5899 6.08203 12.6791 6.17118C12.7682 6.26032 12.8389 6.36615 12.8872 6.48262C12.9354 6.5991 12.9602 6.72393 12.9602 6.85C12.9602 6.97607 12.9354 7.1009 12.8872 7.21738C12.8389 7.33385 12.7682 7.43968 12.6791 7.52882C12.5899 7.61797 12.4841 7.68868 12.3676 7.73692C12.2511 7.78517 12.1263 7.81 12.0002 7.81C11.7456 7.81 11.5014 7.70886 11.3214 7.52882C11.1414 7.34879 11.0402 7.10461 11.0402 6.85C11.0402 6.59539 11.1414 6.35121 11.3214 6.17118C11.5014 5.99114 11.7456 5.89 12.0002 5.89ZM6.87023 7.82C6.61563 7.82 6.37145 7.71886 6.19141 7.53882C6.01138 7.35879 5.91023 7.11461 5.91023 6.86C5.91023 6.60539 6.01138 6.36121 6.19141 6.18118C6.37145 6.00114 6.61563 5.9 6.87023 5.9C7.12484 5.9 7.36902 6.00114 7.54906 6.18118C7.72909 6.36121 7.83023 6.60539 7.83023 6.86C7.83023 7.11461 7.72909 7.35879 7.54906 7.53882C7.36902 7.71886 7.12484 7.82 6.87023 7.82Z" fill="#00D80A"/>
<path d="M22.2602 14.57C22.2602 11.73 19.3902 9.43 15.8502 9.43C12.3102 9.43 9.44023 11.73 9.44023 14.57C9.44023 17.41 12.3102 19.71 15.8502 19.71C16.4302 19.71 16.9902 19.63 17.5202 19.51L20.9802 21L19.7802 18.6C21.2802 17.66 22.2602 16.22 22.2602 14.57ZM13.9202 14.25C13.7304 14.25 13.5448 14.1937 13.3869 14.0882C13.229 13.9827 13.106 13.8328 13.0333 13.6574C12.9606 13.482 12.9416 13.2889 12.9787 13.1027C13.0157 12.9165 13.1072 12.7454 13.2414 12.6112C13.3757 12.4769 13.5467 12.3855 13.7329 12.3484C13.9192 12.3114 14.1122 12.3304 14.2876 12.4031C14.463 12.4757 14.613 12.5988 14.7184 12.7567C14.8239 12.9145 14.8802 13.1001 14.8802 13.29C14.8902 13.82 14.4502 14.25 13.9202 14.25ZM17.7702 14.25C17.5156 14.25 17.2714 14.1489 17.0914 13.9688C16.9114 13.7888 16.8102 13.5446 16.8102 13.29C16.8102 13.0354 16.9114 12.7912 17.0914 12.6112C17.2714 12.4311 17.5156 12.33 17.7702 12.33C18.0248 12.33 18.269 12.4311 18.4491 12.6112C18.6291 12.7912 18.7302 13.0354 18.7302 13.29C18.7302 13.5446 18.6291 13.7888 18.4491 13.9688C18.269 14.1489 18.0248 14.25 17.7702 14.25Z" fill="#00D80A"/>
<path d="M6.87023 7.82C6.61563 7.82 6.37145 7.71886 6.19141 7.53882C6.01138 7.35879 5.91023 7.11461 5.91023 6.86C5.91023 6.60539 6.01138 6.36121 6.19141 6.18118C6.37145 6.00114 6.61563 5.9 6.87023 5.9C7.12484 5.9 7.36902 6.00114 7.54906 6.18118C7.72909 6.36121 7.83023 6.60539 7.83023 6.86C7.83023 7.11461 7.72909 7.35879 7.54906 7.53882C7.36902 7.71886 7.12484 7.82 6.87023 7.82Z" fill="white"/>
<path d="M12.0002 5.89C12.1263 5.89 12.2511 5.91483 12.3676 5.96308C12.4841 6.01132 12.5899 6.08203 12.6791 6.17118C12.7682 6.26032 12.8389 6.36615 12.8872 6.48262C12.9354 6.5991 12.9602 6.72393 12.9602 6.85C12.9602 6.97607 12.9354 7.1009 12.8872 7.21738C12.8389 7.33385 12.7682 7.43968 12.6791 7.52882C12.5899 7.61797 12.4841 7.68868 12.3676 7.73692C12.2511 7.78517 12.1263 7.81 12.0002 7.81C11.7456 7.81 11.5014 7.70886 11.3214 7.52882C11.1414 7.34879 11.0402 7.10461 11.0402 6.85C11.0402 6.59539 11.1414 6.35121 11.3214 6.17118C11.5014 5.99114 11.7456 5.89 12.0002 5.89Z" fill="white"/>
<path d="M17.7702 14.25C17.5156 14.25 17.2714 14.1489 17.0914 13.9688C16.9114 13.7888 16.8102 13.5446 16.8102 13.29C16.8102 13.0354 16.9114 12.7912 17.0914 12.6112C17.2714 12.4311 17.5156 12.33 17.7702 12.33C18.0248 12.33 18.269 12.4311 18.4491 12.6112C18.6291 12.7912 18.7302 13.0354 18.7302 13.29C18.7302 13.5446 18.6291 13.7888 18.4491 13.9688C18.269 14.1489 18.0248 14.25 17.7702 14.25Z" fill="white"/>
<path d="M13.9202 14.25C13.7304 14.25 13.5448 14.1937 13.3869 14.0882C13.229 13.9827 13.106 13.8328 13.0333 13.6574C12.9606 13.482 12.9416 13.2889 12.9787 13.1027C13.0157 12.9165 13.1072 12.7454 13.2414 12.6112C13.3757 12.4769 13.5467 12.3855 13.7329 12.3484C13.9192 12.3114 14.1122 12.3304 14.2876 12.4031C14.463 12.4757 14.613 12.5988 14.7184 12.7567C14.8239 12.9145 14.8802 13.1001 14.8802 13.29C14.8902 13.82 14.4502 14.25 13.9202 14.25Z" fill="white"/>
</svg>