<svg xmlns="http://www.w3.org/2000/svg" width="24" height="24" viewBox="0 0 24 24" fill="none">
<path d="M12 22C17.5228 22 22 17.5228 22 12C22 6.47715 17.5228 2 12 2C6.47715 2 2 6.47715 2 12C2 17.5228 6.47715 22 12 22Z" fill="url(#paint0_linear_4272_1058)"/>
<path fill-rule="evenodd" clip-rule="evenodd" d="M6.52684 11.894C9.44204 10.6239 11.386 9.78653 12.3586 9.38197C15.1357 8.22688 15.7128 8.02623 16.0889 8.0196C16.1716 8.01814 16.3566 8.03865 16.4764 8.13587C16.5776 8.21796 16.6054 8.32885 16.6187 8.40668C16.632 8.48451 16.6486 8.66181 16.6354 8.80034C16.485 10.3816 15.8338 14.2188 15.5025 15.9898C15.3623 16.7392 15.0863 16.9905 14.8191 17.0151C14.2384 17.0685 13.7974 16.6313 13.2349 16.2626C12.3548 15.6857 11.8576 15.3265 11.0033 14.7635C10.016 14.1129 10.656 13.7553 11.2187 13.1709C11.3659 13.018 13.9246 10.6907 13.9741 10.4795C13.9803 10.4531 13.986 10.3547 13.9276 10.3027C13.8691 10.2508 13.7828 10.2685 13.7205 10.2827C13.6322 10.3027 12.2262 11.232 9.50246 13.0707C9.10337 13.3447 8.74188 13.4782 8.418 13.4712C8.06095 13.4635 7.37413 13.2693 6.86355 13.1034C6.23729 12.8998 5.73956 12.7922 5.7829 12.4465C5.80548 12.2664 6.05346 12.0822 6.52684 11.894Z" fill="white"/>
<defs>
<linearGradient id="paint0_linear_4272_1058" x1="12" y1="2" x2="12" y2="21.8517" gradientUnits="userSpaceOnUse">
<stop stop-color="#2AABEE"/>
<stop offset="1" stop-color="#229ED9"/>
</linearGradient>
</defs>
</svg>