<svg xmlns="http://www.w3.org/2000/svg" width="24" height="24" viewBox="0 0 24 24" fill="currentColor">
<path fill-rule="evenodd" clip-rule="evenodd" d="M22 12C22 17.5228 17.5228 22 12 22C6.47715 22 2 17.5228 2 12C2 6.47715 6.47715 2 12 2C17.5228 2 22 6.47715 22 12ZM6.52658 11.8944C9.44178 10.6243 11.3857 9.787 12.3584 9.38244C15.1355 8.22735 15.7125 8.0267 16.0886 8.02007C16.1714 8.01861 16.3563 8.03911 16.4761 8.13633C16.5773 8.21842 16.6051 8.32932 16.6185 8.40715C16.6318 8.48498 16.6484 8.66228 16.6352 8.80081C16.4847 10.382 15.8335 14.2193 15.5022 15.9903C15.3621 16.7397 15.086 16.9909 14.8188 17.0155C14.359 17.0579 13.9867 16.7925 13.5724 16.4971C13.4635 16.4195 13.3517 16.3398 13.2347 16.2631C12.7752 15.9619 12.4201 15.7201 12.0641 15.4776C11.7381 15.2556 11.4114 15.0331 11.003 14.764C10.1533 14.204 10.509 13.8611 10.9833 13.4038C11.0601 13.3298 11.14 13.2528 11.2184 13.1714C11.2534 13.135 11.4246 12.9759 11.6659 12.7515C12.4401 12.0318 13.9361 10.641 13.9738 10.48C13.98 10.4536 13.9858 10.3552 13.9273 10.3032C13.8688 10.2512 13.7825 10.269 13.7203 10.2831C13.632 10.3032 12.226 11.2325 9.5022 13.0711C9.10311 13.3452 8.74162 13.4787 8.41774 13.4717C8.06069 13.464 7.37386 13.2698 6.86328 13.1038C6.78831 13.0795 6.71517 13.0565 6.64459 13.0343C6.12562 12.8711 5.74449 12.7513 5.78264 12.4469C5.80521 12.2669 6.05319 12.0827 6.52658 11.8944Z"/>
</svg>