<svg xmlns="http://www.w3.org/2000/svg" width="24" height="24" viewBox="0 0 24 24" fill="currentColor">
<path d="M18.491 2C20.4285 2 22 3.57142 22 5.50892V9.24998C21.9151 9.24552 21.8303 9.24105 21.7455 9.24105H21.7276C21.2812 9.24105 20.7321 9.3482 20.3392 9.54462C19.8928 9.74998 19.5044 10.058 19.1785 10.4643C18.6517 11.116 18.3348 11.9955 18.2589 12.9821C18.2544 13.0134 18.2544 13.0402 18.25 13.0714C18.2455 13.1027 18.2455 13.125 18.2455 13.1562C18.241 13.2098 18.241 13.2634 18.241 13.3169C18.241 13.4018 18.2366 13.4866 18.241 13.5759C18.2946 15.8125 19.5 17.6026 21.6473 17.6026C21.7678 17.6026 21.8839 17.5982 22 17.5848V18.4955C22 20.433 20.4285 22.0044 18.491 22.0044L5.50892 22C3.57142 22 2 20.4285 2 18.491V5.50892C2 3.57142 3.57142 2 5.50892 2H18.491ZM5.6741 6.77231L5.68749 6.77677C6.27678 6.9107 6.57142 7.10713 6.57142 7.82141V16.1785C6.57142 16.8928 6.27231 17.0892 5.68303 17.2232L5.66963 17.2276V17.3526H8.02677V17.2276L8.01338 17.2232C7.42409 17.0892 7.12499 16.8928 7.12499 16.1785V8.30802L10.9687 17.3482H11.1875L15.1428 8.05356V16.3839C15.0937 16.9464 14.7946 17.1205 14.2634 17.241L14.25 17.2455V17.366H18.3526V17.2455L18.3392 17.241C17.808 17.1205 17.5044 16.9464 17.4509 16.3839L17.4464 7.82141H17.4509C17.4509 7.10713 17.75 6.9107 18.3392 6.77677L18.3526 6.77231V6.65177H15.1294L12.1384 13.6785L9.1473 6.65177H5.6741V6.77231ZM22 15.7634C20.8794 15.433 20.0803 14.1964 20.1607 12.7366H21.9955V15.7634H22ZM21.7142 9.7098C21.8169 9.7098 21.9107 9.7232 22 9.74998V12.3125H20.2053C20.2723 10.8125 20.8125 9.72766 21.7142 9.7098Z"/>
</svg>